<?xml version="1.0" encoding="UTF-8" standalone="no"?>
<!DOCTYPE svg PUBLIC "-//W3C//DTD SVG 1.1//EN" "http://www.w3.org/Graphics/SVG/1.1/DTD/svg11.dtd">
<svg width="100%" height="100%" viewBox="0 0 3605 1565" version="1.1" xmlns="http://www.w3.org/2000/svg" xmlns:xlink="http://www.w3.org/1999/xlink" xml:space="preserve" xmlns:serif="http://www.serif.com/" style="fill-rule:evenodd;clip-rule:evenodd;stroke-linejoin:round;stroke-miterlimit:2;">
    <g transform="matrix(1,0,0,1,-154,-206)">
        <rect x="0" y="0" width="4000" height="2000" style="fill:white;"/>
    </g>
    <g transform="matrix(1,0,0,1,-154,-206)">
        <path d="M3554.063,1515.076C3554.063,1506.681 3553.796,1498.15 3553.396,1489.489C3552.463,1468.031 3550.997,1445.91 3548.598,1423.121C3546.866,1406.462 3544.734,1389.537 3542.069,1372.344C3497.423,1078.615 3322.039,729.714 2845.464,778.358C2080.624,856.322 1367.493,-321.79 972.213,537.005C909.31,673.607 791.765,699.062 587.728,791.685C397.285,878.044 259.882,1099.006 282.805,1372.344C284.138,1389.137 286.137,1406.063 288.803,1423.121C292.001,1444.976 296.4,1466.966 301.73,1489.489C306.928,1510.812 313.059,1532.402 320.255,1553.992C341.179,1617.43 370.897,1682.598 410.346,1748.7C411.145,1749.9 411.811,1751.097 412.478,1752.299L3505.021,1752.299C3529.944,1745.502 3551.799,1653.013 3554.066,1523.475C3554.063,1520.674 3554.195,1517.875 3554.063,1515.076Z" style="fill:rgb(235,242,249);fill-rule:nonzero;"/>
        <path d="M2519.475,1219.836C2375.577,1174.836 2181.271,1198.954 2181.271,1198.954C1998.479,1101.618 1827.064,1213.928 1827.064,1213.928C1708.995,1206.442 1659.621,1273.824 1659.621,1273.824L2647.105,1281.31C2647.105,1281.311 2615.416,1249.838 2519.475,1219.836Z" style="fill:rgb(248,252,255);fill-rule:nonzero;"/>
        <g>
            <path d="M1139.398,987.228C920.883,887.141 715.969,1002.625 715.969,1002.625C574.826,994.927 515.802,1064.215 515.802,1064.215L1696.27,1071.914C1696.27,1071.914 1658.388,1039.551 1543.697,1008.7C1371.677,962.429 1139.398,987.228 1139.398,987.228Z" style="fill:rgb(248,252,255);fill-rule:nonzero;"/>
            <path d="M2117.513,750.348C2000.182,718.787 1841.75,735.702 1841.75,735.702C1692.707,667.435 1552.94,746.205 1552.94,746.205C1456.67,740.954 1416.412,788.213 1416.412,788.213L2221.578,793.465C2221.578,793.464 2195.74,771.391 2117.513,750.348Z" style="fill:rgb(248,252,255);fill-rule:nonzero;"/>
        </g>
        <path d="M3554.063,1515.076C3554.063,1506.681 3553.796,1498.15 3553.396,1489.489C3552.463,1468.031 3550.997,1445.91 3548.598,1423.121C3546.866,1406.462 3544.734,1389.537 3542.069,1372.344L282.803,1372.344C284.136,1389.137 286.135,1406.063 288.801,1423.121C291.999,1444.976 296.398,1466.966 301.728,1489.489C306.926,1510.812 313.057,1532.402 320.253,1553.992C341.177,1617.43 370.895,1682.598 410.344,1748.7C411.143,1749.9 411.809,1751.097 412.476,1752.299L3505.019,1752.299C3529.942,1745.502 3551.797,1653.013 3554.064,1523.475C3554.063,1520.674 3554.195,1517.875 3554.063,1515.076Z" style="fill:rgb(158,217,240);fill-rule:nonzero;"/>
        <path d="M3553.344,1489.537L301.75,1489.537C306.964,1510.826 313.023,1532.42 320.21,1554.011C341.207,1617.421 370.942,1682.655 410.399,1748.65L3512.194,1748.65C3534.037,1731.01 3552.075,1655.588 3554.048,1554.011C3554.472,1533.482 3554.331,1511.89 3553.344,1489.537Z" style="fill:rgb(255,224,179);fill-rule:nonzero;"/>
        <path d="M2672.009,1681.234C2394.926,1735.988 2194.114,1605.072 2116.333,1576.68C2038.552,1548.287 1644.087,1674.024 1419.076,1625.352C1194.065,1576.68 1013.5,1633.464 863.493,1661.856C713.486,1690.249 749.599,1657.8 588.479,1592.904C427.359,1528.008 266.953,1750.119 266.953,1750.119L3596.963,1751.008C3547.152,1527.103 2949.093,1626.481 2672.009,1681.234Z" style="fill:rgb(255,209,136);fill-rule:nonzero;"/>
        <g>
            <path d="M2807.324,1314.904L2755.807,1301.609L2674.375,1344.817L2612.887,1454.5L2637.814,1525.96L2587.959,1597.42L2586.297,1718.736L2634.49,1748.649L2893.74,1748.649L2950.244,1650.6L2956.892,1496.047L2918.669,1336.509L2850.532,1304.934L2807.324,1314.904Z" style="fill:rgb(210,228,255);fill-rule:nonzero;"/>
            <path d="M2803.883,1304.851L2791.63,1265.639C2790.687,1262.622 2787.822,1260.624 2784.666,1260.785C2773.667,1261.349 2749.593,1262.826 2749.593,1264.964C2749.593,1267.733 2803.883,1304.851 2803.883,1304.851Z" style="fill:rgb(192,219,255);fill-rule:nonzero;"/>
            <path d="M2810.531,1306.513L2812.301,1279.528C2812.531,1276.012 2815.929,1273.591 2819.326,1274.523L2830.398,1277.556C2838.594,1279.801 2839.832,1290.91 2832.331,1294.905L2810.531,1306.513Z" style="fill:rgb(192,219,255);fill-rule:nonzero;"/>
            <path d="M2793.872,1307.127C2794.753,1305.523 2795.628,1303.947 2796.35,1302.654C2797.407,1300.757 2799.397,1299.571 2801.568,1299.544L2817.149,1299.35C2819.083,1299.326 2820.912,1300.226 2822.073,1301.774L2824.497,1305.004C2825.485,1306.322 2825.894,1307.984 2825.631,1309.611L2825.247,1311.973C2824.754,1315.016 2822.056,1317.203 2818.976,1317.057L2798.896,1316.101C2794.418,1315.888 2791.715,1311.057 2793.872,1307.127Z" style="fill:rgb(192,219,255);fill-rule:nonzero;"/>
            <path d="M2674.375,1344.817L2706.903,1430.336C2708.764,1435.23 2715.606,1435.449 2717.778,1430.686L2731.021,1401.637C2733.255,1396.736 2731.877,1390.943 2727.675,1387.572L2674.375,1344.817Z" style="fill:rgb(192,219,255);fill-rule:nonzero;"/>
            <path d="M2635.473,1529.397C2635.473,1529.397 2675.36,1577.962 2667.604,1585.718C2659.848,1593.474 2587.959,1597.419 2587.959,1597.419L2635.473,1529.397Z" style="fill:rgb(192,219,255);fill-rule:nonzero;"/>
            <path d="M2950.244,1650.6C2950.244,1650.6 2802.036,1699.839 2810.161,1717.567C2818.287,1735.294 2893.74,1748.65 2893.74,1748.65L2950.244,1650.6Z" style="fill:rgb(192,219,255);fill-rule:nonzero;"/>
            <path d="M2769.109,1485.393L2927.315,1503.578C2932.496,1504.174 2933.361,1511.338 2928.47,1513.149L2837.965,1546.669C2832.001,1548.878 2825.304,1547.579 2820.597,1543.301L2765.542,1493.251C2762.285,1490.288 2764.736,1484.89 2769.109,1485.393Z" style="fill:rgb(192,219,255);fill-rule:nonzero;"/>
            <path d="M2791.142,1322.578L2753.928,1332.088C2747.698,1333.681 2744.845,1340.9 2748.305,1346.32L2752.711,1353.221C2755.296,1357.271 2761.057,1357.677 2764.184,1354.029L2791.142,1322.578Z" style="fill:rgb(192,219,255);fill-rule:nonzero;"/>
            <path d="M2810.531,1321.47L2847.738,1314.934C2850.159,1314.508 2852.649,1315.08 2854.642,1316.52L2869.476,1327.233C2872.255,1329.241 2870.336,1333.619 2866.978,1332.936L2810.531,1321.47Z" style="fill:rgb(192,219,255);fill-rule:nonzero;"/>
        </g>
        <g>
            <path d="M3002.916,1503.659L2975.396,1496.558L2931.895,1519.64L2899.048,1578.232L2912.364,1616.406L2885.731,1654.58L2884.843,1719.387L2910.588,1735.367L3049.08,1735.367L3079.265,1682.988L3082.815,1600.426L3062.396,1515.2L3025.998,1498.333L3002.916,1503.659Z" style="fill:rgb(105,159,240);fill-rule:nonzero;"/>
            <g>
                <path d="M3001.078,1498.289L2994.532,1477.342C2994.028,1475.731 2992.499,1474.663 2990.812,1474.749C2984.936,1475.05 2972.076,1475.84 2972.076,1476.981C2972.076,1478.461 3001.078,1498.289 3001.078,1498.289Z" style="fill:rgb(74,117,203);fill-rule:nonzero;"/>
                <path d="M3004.629,1499.177L3005.574,1484.761C3005.697,1482.883 3007.512,1481.59 3009.328,1482.087L3015.243,1483.708C3019.621,1484.907 3020.282,1490.842 3016.275,1492.976L3004.629,1499.177Z" style="fill:rgb(74,117,203);fill-rule:nonzero;"/>
                <path d="M2995.73,1499.505C2996.201,1498.649 2996.668,1497.807 2997.053,1497.115C2997.617,1496.101 2998.681,1495.469 2999.84,1495.454L3008.163,1495.35C3009.196,1495.337 3010.174,1495.819 3010.794,1496.645L3012.089,1498.372C3012.616,1499.075 3012.835,1499.964 3012.694,1500.833L3012.489,1502.095C3012.225,1503.721 3010.784,1504.889 3009.139,1504.811L2998.412,1504.3C2996.021,1504.186 2994.578,1501.604 2995.73,1499.505Z" style="fill:rgb(74,117,203);fill-rule:nonzero;"/>
                <path d="M2931.895,1519.64L2949.272,1565.324C2950.266,1567.938 2953.921,1568.055 2955.082,1565.511L2962.156,1549.993C2963.349,1547.375 2962.614,1544.28 2960.369,1542.479L2931.895,1519.64Z" style="fill:rgb(74,117,203);fill-rule:nonzero;"/>
                <path d="M2913.781,1618.242C2913.781,1618.242 2935.089,1644.185 2930.945,1648.329C2926.802,1652.473 2888.399,1654.58 2888.399,1654.58L2913.781,1618.242Z" style="fill:rgb(74,117,203);fill-rule:nonzero;"/>
                <path d="M3079.265,1682.988C3079.265,1682.988 3000.092,1709.292 3004.432,1718.761C3008.773,1728.232 3049.08,1735.366 3049.08,1735.366L3079.265,1682.988Z" style="fill:rgb(74,117,203);fill-rule:nonzero;"/>
                <path d="M2985.17,1594.734L3069.684,1604.449C3072.452,1604.767 3072.914,1608.594 3070.301,1609.561L3021.953,1627.468C3018.767,1628.648 3015.189,1627.953 3012.676,1625.668L2983.265,1598.931C2981.524,1597.35 2982.834,1594.466 2985.17,1594.734Z" style="fill:rgb(74,117,203);fill-rule:nonzero;"/>
                <path d="M2994.271,1507.759L2974.391,1512.839C2971.063,1513.69 2969.539,1517.546 2971.388,1520.442L2973.741,1524.13C2975.123,1526.293 2978.2,1526.51 2979.87,1524.562L2994.271,1507.759Z" style="fill:rgb(74,117,203);fill-rule:nonzero;"/>
                <path d="M3004.629,1507.167L3024.506,1503.675C3025.799,1503.447 3027.129,1503.753 3028.194,1504.523L3036.119,1510.246C3037.603,1511.318 3036.579,1513.657 3034.784,1513.293L3004.629,1507.167Z" style="fill:rgb(74,117,203);fill-rule:nonzero;"/>
            </g>
        </g>
        <g>
            <path d="M1272.792,1360.816L1199.444,1353.831L1152.642,1390.854L1134.802,1459.732L1156.833,1506.813L1108.633,1486.555L996.496,1612.183L976.065,1719.055L1013.784,1745.773L1339.116,1745.773L1386.266,1591.751L1384.694,1466.019L1272.792,1360.816Z" style="fill:rgb(210,228,255);fill-rule:nonzero;"/>
            <g>
                <path d="M1108.633,1486.555C1108.633,1486.555 1151.244,1542.439 1160.325,1544.534C1169.406,1546.629 1197.348,1542.438 1196.65,1538.248C1195.951,1534.057 1156.833,1506.813 1156.833,1506.813L1108.633,1486.555Z" style="fill:rgb(174,211,255);fill-opacity:0.5;fill-rule:nonzero;"/>
                <path d="M996.496,1612.183L1055.817,1656.528C1060.826,1660.272 1063.239,1666.563 1062.003,1672.693C1059.364,1685.776 1054.51,1707.031 1050.653,1707.995C1045.065,1709.392 996.496,1612.183 996.496,1612.183Z" style="fill:rgb(174,211,255);fill-opacity:0.5;fill-rule:nonzero;"/>
                <path d="M1375.129,1603.213C1375.129,1603.213 1290.255,1647.221 1287.112,1654.556C1283.968,1661.891 1313.307,1721.617 1324.833,1713.234C1336.359,1704.852 1375.129,1603.213 1375.129,1603.213Z" style="fill:rgb(174,211,255);fill-opacity:0.5;fill-rule:nonzero;"/>
            </g>
            <g>
                <path d="M1171.502,1368.501C1171.502,1368.501 1110.729,1352.435 1105.14,1355.229C1099.551,1358.023 1071.61,1396.443 1074.404,1403.428C1077.199,1410.414 1171.502,1368.501 1171.502,1368.501Z" style="fill:rgb(210,228,255);fill-rule:nonzero;"/>
                <path d="M1175.694,1330.779L1171.503,1368.501L1197.349,1345.449C1197.349,1345.449 1187.569,1326.588 1175.694,1330.779Z" style="fill:rgb(192,219,255);fill-rule:nonzero;"/>
                <path d="M1179.71,1371.295C1179.71,1370.772 1178.837,1362.912 1177.44,1363.262C1176.043,1363.612 1166.612,1369.374 1166.612,1370.422C1166.612,1371.47 1164.865,1379.328 1168.533,1378.98C1172.201,1378.63 1179.71,1371.295 1179.71,1371.295Z" style="fill:rgb(192,219,255);fill-rule:nonzero;"/>
                <path d="M1176.393,1375.442C1176.393,1375.442 1167.312,1408.274 1168.709,1411.068C1170.106,1413.862 1188.967,1435.168 1191.412,1434.12C1193.857,1433.072 1176.393,1375.442 1176.393,1375.442Z" style="fill:rgb(174,211,255);fill-opacity:0.5;fill-rule:nonzero;"/>
                <path d="M1179.187,1373.74C1179.187,1373.74 1189.666,1406.571 1192.459,1406.222C1195.253,1405.872 1209.923,1380.027 1207.827,1377.931C1205.731,1375.835 1179.187,1373.74 1179.187,1373.74Z" style="fill:rgb(174,211,255);fill-opacity:0.5;fill-rule:nonzero;"/>
                <path d="M1180.703,1371.968L1189.634,1367.388C1190.049,1367.175 1190.537,1367.156 1190.967,1367.333L1194.691,1368.874C1195.502,1369.21 1195.33,1370.405 1194.457,1370.499L1180.703,1371.968Z" style="fill:rgb(174,211,255);fill-opacity:0.5;fill-rule:nonzero;"/>
                <path d="M1173.494,1376.704L1168.398,1381.813C1167.65,1382.563 1167.732,1383.8 1168.574,1384.444L1170.296,1385.761C1170.872,1386.201 1171.711,1385.883 1171.849,1385.171L1173.494,1376.704Z" style="fill:rgb(174,211,255);fill-opacity:0.5;fill-rule:nonzero;"/>
                <path d="M1172.376,1368.501C1171.59,1368.238 1133.083,1364.31 1129.939,1365.881C1126.795,1367.453 1112.388,1380.813 1118.151,1381.599C1123.914,1382.385 1172.376,1368.501 1172.376,1368.501Z" style="fill:rgb(192,219,255);fill-rule:nonzero;"/>
            </g>
            <path d="M1013.784,1745.773C1013.784,1745.773 1149.149,1725.458 1163.12,1730.347C1177.091,1735.238 1225.29,1745.017 1225.29,1745.017C1225.29,1745.017 1285.365,1729.649 1291.652,1733.142C1297.939,1736.634 1306.322,1745.715 1306.322,1745.715L1013.784,1745.773Z" style="fill:rgb(174,211,255);fill-rule:nonzero;"/>
        </g>
        <path d="M2705.267,1729.088C2409.677,1771.364 2195.454,1670.282 2112.478,1648.36C2029.502,1626.438 1608.691,1723.521 1368.651,1685.941C1128.611,1648.36 935.987,1692.204 775.961,1714.126C615.935,1736.049 654.46,1710.994 482.579,1660.887C310.699,1610.78 198.088,1757.971 198.088,1757.971L3691.998,1757.971C3514.189,1638.965 3000.855,1686.813 2705.267,1729.088Z" style="fill:rgb(252,195,112);fill-rule:nonzero;"/>
        <path d="M3745.931,1749.964L168.798,1749.964C166.812,1749.964 165.188,1751.588 165.188,1753.574L165.188,1754.517C165.188,1756.502 166.812,1758.127 168.798,1758.127L3745.93,1758.127C3747.915,1758.127 3749.54,1756.502 3749.54,1754.517L3749.54,1753.574C3749.541,1751.588 3747.916,1749.964 3745.931,1749.964Z" style="fill:rgb(238,152,73);fill-rule:nonzero;"/>
        <g>
            <g>
                <path d="M1681.29,1706.061C1678.53,1715.36 1665.79,1721.561 1664.07,1732.93C1662.64,1742.36 1657.65,1748.231 1652.45,1749.96L1619.43,1749.96C1618.64,1748.13 1616.85,1742.12 1626.15,1740.09C1637.17,1737.68 1641.33,1724.32 1640.64,1711.92C1640.35,1706.72 1640.49,1700.79 1640.74,1695.66C1641.09,1688.56 1641.67,1682.98 1641.67,1682.98L1665.1,1677.469L1667.56,1680.629L1669.92,1683.669C1669.92,1683.67 1684.05,1696.76 1681.29,1706.061Z" style="fill:rgb(35,56,98);fill-rule:nonzero;"/>
                <path d="M1493.99,1749.96L1413.97,1749.96C1414.8,1747.09 1417.5,1742.16 1426.35,1740.72C1438.7,1738.71 1460.1,1731.54 1464.87,1715.75C1465.02,1715.24 1465.16,1714.72 1465.28,1714.189C1469.07,1697.31 1496.63,1719.359 1496.63,1719.359C1496.63,1719.359 1496.71,1720.04 1496.83,1721.189C1497.47,1727.35 1499.09,1747.12 1493.99,1749.96Z" style="fill:rgb(35,56,98);fill-rule:nonzero;"/>
                <path d="M1429.632,1298.506C1429.632,1298.506 1433.818,1350.73 1438.737,1413.506C1445.424,1498.782 1453.465,1603.53 1454.261,1623.374C1455.636,1657.832 1461.155,1712.949 1461.155,1712.949C1461.155,1712.949 1474.239,1726.045 1500.429,1720.525C1500.429,1720.525 1523.766,1641.842 1530.432,1558.591C1530.536,1557.228 1530.639,1555.853 1530.742,1554.478C1536.944,1469.729 1546.586,1291.27 1546.586,1291.27L1429.632,1298.506Z" style="fill:rgb(43,71,139);fill-rule:nonzero;"/>
                <path d="M1429.632,1298.506C1429.632,1298.506 1433.818,1350.73 1438.737,1413.506L1530.431,1558.592C1530.535,1557.229 1530.638,1555.854 1530.741,1554.479C1536.943,1469.73 1546.585,1291.271 1546.585,1291.271L1429.632,1298.506Z" style="fill:rgb(35,56,98);fill-rule:nonzero;"/>
                <path d="M1448.747,1304.707C1448.747,1304.707 1524.195,1493.843 1573.804,1582.726C1623.413,1671.61 1638.916,1696.414 1638.916,1696.414C1638.916,1696.414 1667.338,1685.045 1669.922,1677.294C1669.922,1677.294 1650.951,1505.7 1617.729,1463.87C1598.956,1440.234 1576.905,1369.303 1575.871,1344.498C1574.837,1319.693 1569.153,1270.601 1569.153,1270.601L1448.747,1304.707Z" style="fill:rgb(43,71,139);fill-rule:nonzero;"/>
            </g>
            <path d="M1548.015,1013.235C1548.015,1013.235 1496.966,1038.25 1467.537,1028.968C1467.537,1028.968 1474.781,1019.688 1487.458,1012.781C1486.439,1006.782 1485.647,1001.575 1485.194,997.161C1483.949,986.973 1483.949,981.201 1483.949,981.201L1503.644,965.469L1522.321,950.414C1520.849,992.748 1548.015,1013.235 1548.015,1013.235Z" style="fill:rgb(255,178,125);fill-rule:nonzero;"/>
            <path d="M1574.916,1280.289C1575.03,1283.458 1568.351,1287.08 1565.409,1288.438C1543.562,1298.171 1523.189,1304.962 1500.098,1307.228C1472.819,1310.057 1440.56,1303.832 1429.468,1304.058C1428.336,1304.058 1427.317,1303.606 1426.411,1302.813C1425.619,1302.247 1425.053,1268.856 1425.619,1226.863C1425.619,1225.165 1425.619,1223.467 1425.732,1221.769L1425.732,1221.204C1425.959,1204.791 1426.524,1187.587 1427.316,1170.382C1428.901,1132.575 1431.843,1096.128 1436.824,1075.981C1442.824,1052.211 1456.407,1036.477 1468.743,1025.045L1478.931,1015.988C1489.118,1018.027 1499.871,1017.462 1510.624,1012.142C1522.395,1006.369 1535.274,999.893 1537.312,1001.476C1552.706,1012.909 1562.917,1038.853 1568.463,1071.678C1571.632,1090.581 1573.217,1111.748 1573.104,1133.933C1573.104,1142.083 1572.877,1150.459 1572.425,1158.722C1569.709,1203.545 1572.425,1242.482 1574.009,1265.006C1574.463,1271.573 1574.802,1276.666 1574.916,1280.289Z" style="fill:rgb(168,210,159);fill-rule:nonzero;"/>
            <path d="M1574.01,1265.007C1326.69,1264.668 1528.395,1080.621 1528.395,1080.621L1568.464,1071.679C1571.633,1090.582 1573.218,1111.749 1573.105,1133.934C1573.105,1142.084 1572.878,1150.46 1572.426,1158.723C1569.709,1203.546 1572.426,1242.482 1574.01,1265.007Z" style="fill:rgb(130,179,120);fill-rule:nonzero;"/>
            <path d="M1463.99,1143.895L1463.198,1162.684L1462.406,1180.115L1459.916,1239.653L1424.827,1300.437C1424.827,1300.437 1398.567,1328.282 1330.993,1328.282C1246.78,1328.282 1234.329,1281.873 1234.329,1281.873L1235.347,1206.716L1266.248,1162.458L1250.854,1118.201L1288.886,1050.173L1339.369,1023.462L1371.289,1031.725L1398.115,1025.499L1440.335,1045.08L1463.99,1143.895Z" style="fill:rgb(105,159,240);fill-rule:nonzero;"/>
            <path d="M1369.172,1025.453L1361.579,1001.156C1360.995,999.287 1359.22,998.049 1357.265,998.149C1350.449,998.498 1335.532,999.414 1335.532,1000.738C1335.532,1002.454 1369.172,1025.453 1369.172,1025.453Z" style="fill:rgb(74,117,203);fill-rule:nonzero;"/>
            <path d="M1373.291,1026.483L1374.388,1009.761C1374.531,1007.583 1376.636,1006.083 1378.742,1006.66L1385.603,1008.54C1390.682,1009.931 1391.449,1016.814 1386.801,1019.29L1373.291,1026.483Z" style="fill:rgb(74,117,203);fill-rule:nonzero;"/>
            <path d="M1362.969,1026.864C1363.515,1025.871 1364.057,1024.894 1364.504,1024.093C1365.159,1022.917 1366.392,1022.183 1367.738,1022.165L1377.392,1022.045C1378.59,1022.029 1379.724,1022.588 1380.443,1023.547L1381.944,1025.549C1382.556,1026.365 1382.81,1027.396 1382.647,1028.403L1382.41,1029.867C1382.104,1031.753 1380.432,1033.108 1378.524,1033.017L1366.081,1032.424C1363.307,1032.293 1361.632,1029.299 1362.969,1026.864Z" style="fill:rgb(74,117,203);fill-rule:nonzero;"/>
            <path d="M1288.923,1050.219L1309.079,1103.209C1310.233,1106.242 1314.472,1106.378 1315.818,1103.426L1324.024,1085.426C1325.409,1082.389 1324.555,1078.8 1321.951,1076.711L1288.923,1050.219Z" style="fill:rgb(74,117,203);fill-rule:nonzero;"/>
            <path d="M1267.913,1164.592C1267.913,1164.592 1292.628,1194.686 1287.823,1199.491C1283.017,1204.297 1238.471,1206.742 1238.471,1206.742L1267.913,1164.592Z" style="fill:rgb(74,117,203);fill-rule:nonzero;"/>
            <path d="M1459.863,1239.694C1459.863,1239.694 1368.028,1270.205 1373.062,1281.189C1378.096,1292.173 1424.851,1300.45 1424.851,1300.45L1459.863,1239.694Z" style="fill:rgb(74,117,203);fill-rule:nonzero;"/>
            <path d="M1463.197,1162.684L1462.405,1180.115L1377.06,1188.38C1373.777,1188.718 1372.193,1184.305 1375.023,1182.493L1427.769,1148.988C1431.278,1146.838 1435.692,1146.724 1439.201,1148.762L1463.197,1162.684Z" style="fill:rgb(74,117,203);fill-rule:nonzero;"/>
            <path d="M1361.277,1036.438L1338.217,1042.331C1334.356,1043.317 1332.589,1047.791 1334.733,1051.15L1337.463,1055.426C1339.065,1057.935 1342.634,1058.187 1344.572,1055.926L1361.277,1036.438Z" style="fill:rgb(74,117,203);fill-rule:nonzero;"/>
            <path d="M1373.291,1035.752L1396.347,1031.701C1397.847,1031.437 1399.39,1031.792 1400.625,1032.683L1409.817,1039.322C1411.539,1040.566 1410.35,1043.279 1408.269,1042.856L1373.291,1035.752Z" style="fill:rgb(74,117,203);fill-rule:nonzero;"/>
            <path d="M1400.433,1189.186L1391.276,1186.249C1391.276,1186.249 1384.869,1165.054 1363.212,1174.54C1363.212,1174.54 1354.419,1179.203 1358.292,1184.72C1362.164,1190.237 1361.457,1187.331 1366.75,1195.278C1372.042,1203.225 1380.418,1206.995 1387.095,1203.992L1394.702,1204.211L1400.433,1189.186Z" style="fill:rgb(171,112,65);fill-rule:nonzero;"/>
            <path d="M1548.025,1013.181C1548.025,1013.181 1604.034,1102.255 1544.373,1205.188C1525.749,1237.319 1385.081,1206.78 1385.081,1206.78C1385.081,1206.78 1379.598,1196.876 1394.278,1186.44C1394.278,1186.44 1487.933,1170.587 1499.096,1167.929C1509,1165.571 1502.397,1074.547 1513.717,1048.136C1525.037,1021.725 1548.025,1013.181 1548.025,1013.181Z" style="fill:rgb(168,210,159);fill-rule:nonzero;"/>
            <path d="M1522.66,966.602C1522.66,966.602 1509.757,990.485 1485.194,997.162C1483.949,986.974 1483.949,981.202 1483.949,981.202L1503.644,965.47L1522.66,966.602Z" style="fill:rgb(237,152,95);fill-rule:nonzero;"/>
            <path d="M1474.968,980.513C1474.968,980.513 1523.667,988.603 1528.238,958.198C1532.809,927.793 1542.174,908.361 1511.274,901.91C1480.375,895.459 1472.575,906.151 1468.581,915.928C1464.587,925.705 1462.418,977.624 1474.968,980.513Z" style="fill:rgb(255,178,125);fill-rule:nonzero;"/>
            <path d="M1527.917,960.296C1527.917,960.296 1526.935,919.568 1482.562,913.031C1452.169,908.554 1470.575,883.157 1474.049,879.135C1474.049,879.135 1497.282,883.568 1521.062,888.788C1570.973,899.742 1533.192,954.24 1527.917,960.296Z" style="fill:rgb(35,56,98);fill-rule:nonzero;"/>
        </g>
        <g>
            <path d="M742.029,1587.707C734.19,1658.023 730.206,1713.686 730.206,1713.686L712.733,1732.792C712.733,1732.792 691.985,1643.078 688.172,1587.664C698.068,1591.257 716.307,1594.863 742.029,1587.707Z" style="fill:rgb(255,178,125);fill-rule:nonzero;"/>
            <path d="M848.805,1716.075L835.928,1735.815C835.928,1735.815 795.417,1639.57 783.751,1583.979C794.215,1585.708 816.082,1587.144 839.264,1575.521C842.28,1655.014 848.805,1716.075 848.805,1716.075Z" style="fill:rgb(255,178,125);fill-rule:nonzero;"/>
            <path d="M949.673,1285.799C949.673,1285.799 875.568,1349.117 862.021,1356.608C848.475,1364.097 788.848,1417.753 788.848,1417.753C782.075,1417.582 776.112,1426.403 776.112,1426.403C769.602,1431.773 768.515,1439.346 768.764,1444.807C768.872,1447.167 771.837,1448.161 773.37,1446.364C779.91,1438.693 793.005,1427.833 793.005,1427.833C793.005,1427.833 858.341,1397.723 874.638,1386.562C890.935,1375.401 967.629,1332.759 967.629,1332.759L949.673,1285.799Z" style="fill:rgb(255,178,125);fill-rule:nonzero;"/>
            <g>
                <path d="M1106.384,1253.75C1106.384,1253.75 1126.425,1241.547 1109.689,1211.742C1109.689,1211.742 1116.374,1226.424 1111.793,1232.445C1111.793,1232.445 1113.566,1218.606 1106.563,1212.468C1099.56,1206.329 1083.551,1209.95 1079.15,1212.564C1074.749,1215.178 1063.209,1227.96 1064.937,1233.507C1066.665,1239.053 1073.578,1244.102 1073.578,1244.102L1106.384,1253.75Z" style="fill:rgb(148,46,42);fill-rule:nonzero;"/>
                <path d="M1101.85,1318.12C1101.85,1318.12 1137.821,1262.583 1100.085,1250.87C1100.085,1250.87 1088.491,1236.973 1059.527,1239.663C1029.975,1242.408 1014.649,1267.403 1022.824,1275.311C1028.068,1280.383 1018.812,1288.342 1018.812,1288.342L1101.85,1318.12Z" style="fill:rgb(148,46,42);fill-rule:nonzero;"/>
                <path d="M991.38,1338.603C991.359,1338.778 978.889,1326.197 978.46,1313.945C978.048,1302.424 977.415,1287.854 977.491,1287.991C979.785,1292.21 998.61,1294.923 1025.137,1286.553L1025.37,1288.711L1029.25,1325.005C1029.25,1325.005 1018.25,1327.578 1008.107,1330.713C999.592,1333.341 991.682,1336.371 991.38,1338.603Z" style="fill:rgb(255,178,125);fill-rule:nonzero;"/>
                <path d="M1029.251,1325.005C1029.251,1325.005 1018.251,1327.578 1008.108,1330.713C1002.688,1311.415 1016.988,1295.867 1025.37,1288.711L1029.251,1325.005Z" style="fill:rgb(237,152,95);fill-rule:nonzero;"/>
                <path d="M1027.993,1284.021C1027.993,1284.021 1040.71,1269.062 1053.505,1262.436C1062.64,1257.706 1100.017,1251.464 1106.076,1289.091C1106.076,1289.091 1108.304,1299.873 1104.726,1311.776C1101.88,1321.242 1093.994,1336.081 1058.785,1333.205L1047.198,1333.219L1027.993,1284.021Z" style="fill:rgb(148,46,42);fill-rule:nonzero;"/>
                <path d="M1021.645,1334.383C1021.645,1334.383 1006.799,1289.356 1034.982,1280.541C1063.165,1271.726 1080.23,1259.979 1090.9,1288.355C1101.57,1316.731 1092.572,1325.708 1083.88,1330.937C1075.189,1336.168 1026.233,1345.868 1021.645,1334.383Z" style="fill:rgb(255,178,125);fill-rule:nonzero;"/>
                <path d="M1098.013,1308.754C1098.013,1308.754 1061.077,1306.666 1050.262,1289.172C1039.447,1271.678 1041.972,1261.841 1041.972,1261.841C1041.972,1261.841 1058.561,1264.082 1079.277,1269.543C1089.782,1272.313 1110.843,1294.502 1098.013,1308.754Z" style="fill:rgb(148,46,42);fill-rule:nonzero;"/>
            </g>
            <path d="M1085.067,1570.292C1085.067,1570.292 1064.353,1538.6 1046.582,1509.624C1035.263,1491.173 1025.189,1473.855 1022.473,1466.725C1015.455,1448.275 948.899,1343.46 948.899,1343.46L1011.38,1329.312C1011.38,1329.312 1043.073,1434.24 1054.279,1456.764C1058.241,1464.913 1065.259,1481.553 1072.39,1499.549C1085.067,1531.242 1098.537,1566.898 1098.537,1566.898C1098.537,1566.898 1083.595,1578.781 1085.067,1570.292Z" style="fill:rgb(255,178,125);fill-rule:nonzero;"/>
            <path d="M1014.267,1335.499C1014.267,1335.499 998.872,1295.738 986.091,1290.904C986.006,1290.872 985.916,1290.852 985.829,1290.825C983.721,1288.099 980.708,1285.564 976.621,1283.285C939.023,1262.304 874.195,1251.55 805.691,1257.699C805.691,1257.699 742.964,1262.869 704.409,1299.656C687.736,1315.563 765.751,1324.341 765.751,1324.341C768.997,1325.312 772.176,1326.403 775.311,1327.585C789.031,1332.75 801.757,1339.635 814.481,1346.09C825.894,1351.87 837.313,1357.305 849.453,1360.847C854.055,1362.18 858.753,1363.251 863.596,1363.961C876.95,1365.921 888.301,1367.413 897.513,1368.541C916.687,1370.87 936.024,1365.484 951.15,1353.48C954.391,1357.109 958.05,1361.442 962.153,1366.626C962.152,1366.627 989.287,1340.779 1014.267,1335.499Z" style="fill:rgb(255,185,62);fill-rule:nonzero;"/>
            <path d="M939.681,1342.311C939.681,1342.311 925.474,1323.758 889.22,1329.472C860.387,1334.013 801.751,1339.631 814.48,1346.082C814.48,1346.082 818.17,1347.942 820.017,1348.852C820.699,1349.188 821.381,1349.522 822.065,1349.853C822.582,1350.104 823.099,1350.354 823.616,1350.602C824.649,1351.096 825.683,1351.582 826.72,1352.064C827.097,1352.239 827.474,1352.413 827.851,1352.585C828.979,1353.102 830.11,1353.609 831.244,1354.106C831.545,1354.238 831.846,1354.368 832.147,1354.498C833.342,1355.016 834.541,1355.52 835.744,1356.012C835.988,1356.112 836.233,1356.209 836.477,1356.307C837.731,1356.812 838.989,1357.303 840.254,1357.776C840.45,1357.849 840.647,1357.92 840.844,1357.992C842.157,1358.475 843.474,1358.944 844.801,1359.388C844.945,1359.436 845.089,1359.481 845.233,1359.529C846.57,1359.97 847.914,1360.393 849.267,1360.791C849.33,1360.809 849.39,1360.83 849.452,1360.849C854.054,1362.182 858.752,1363.253 863.595,1363.963C876.949,1365.923 888.3,1367.415 897.512,1368.543C916.741,1370.879 936.137,1365.458 951.283,1353.382L939.681,1342.311Z" style="fill:rgb(226,141,5);fill-rule:nonzero;"/>
            <path d="M792.08,1328.81C788.97,1335.64 785.97,1343.69 783.08,1352.72C780.53,1360.73 778.07,1369.5 775.7,1378.89C775.33,1380.34 774.97,1381.79 774.62,1383.26C768.33,1408.95 762.69,1438.89 757.72,1470.08C754.49,1490.319 751.54,1511.09 748.87,1531.55C748.83,1531.9 748.78,1532.25 748.74,1532.6C746.29,1551.46 744.08,1570.04 742.12,1587.71C742.11,1587.83 742.09,1587.939 742.08,1588.061C716.83,1594.52 698.64,1591.42 688.29,1588.01C688.28,1587.89 688.27,1587.78 688.26,1587.66C686.62,1563.87 687.39,1543.309 692.97,1533.18C703.39,1514.23 671.74,1364.19 694.14,1315.19C716.54,1266.18 776.84,1290.22 776.84,1290.22L792.08,1328.81Z" style="fill:rgb(115,156,243);fill-rule:nonzero;"/>
            <path d="M783.081,1352.723C780.527,1360.725 778.073,1369.503 775.697,1378.893C775.334,1380.337 774.971,1381.789 774.616,1383.26C768.327,1408.948 762.687,1438.895 757.715,1470.079C754.485,1490.324 751.54,1511.088 748.873,1531.547C748.831,1531.896 748.781,1532.251 748.738,1532.6C698.226,1344.805 737.684,1344.044 737.684,1344.044L783.081,1352.723Z" style="fill:rgb(100,136,211);fill-rule:nonzero;"/>
            <path d="M838.25,1469.95C837.45,1506.889 838.04,1542.95 839.28,1575.519C839.29,1575.859 839.31,1576.2 839.32,1576.529C816.8,1586.23 795.69,1585.81 783.84,1584.359C783.81,1584.23 783.79,1584.109 783.76,1583.98C779.62,1564.2 778.09,1547.08 781.57,1536.979C786.14,1523.689 770.23,1484.309 759.29,1426.2L740.8,1399.17C724.79,1367.87 723.31,1353.58 728.71,1335.51C734.75,1315.23 768.62,1296.46 776.84,1290.22L790.62,1296.17C823.54,1310.79 843.18,1344.38 841.34,1380.34C840.02,1406.05 838.98,1436.55 838.25,1469.95Z" style="fill:rgb(115,156,243);fill-rule:nonzero;"/>
            <g>
                <path d="M709.055,1749.864L719.036,1749.864C722.379,1749.338 724.847,1748.37 728.276,1747.922C733.483,1747.239 735.88,1749.373 736.357,1749.864C736.421,1749.927 736.45,1749.964 736.45,1749.964L778.846,1749.964C779.913,1748.442 778.888,1744.913 777.886,1742.317C777.21,1740.553 775.738,1739.215 773.917,1738.69C769.421,1737.387 760.558,1736.228 752.442,1728.88C747.875,1724.754 730.39,1713.707 730.39,1713.707L730.298,1713.686C729.914,1713.693 728.086,1714.254 720.133,1720.97C716.021,1724.434 709.015,1716.075 709.015,1716.075C709.015,1716.075 707.699,1717.164 706.717,1719.191C705.927,1720.791 705.351,1722.99 705.807,1725.7C706.44,1729.519 704.398,1736.619 702.769,1741.42C701.78,1744.33 700.948,1746.393 700.948,1746.393C700.948,1746.393 700.469,1748.79 709.055,1749.864Z" style="fill:rgb(216,113,107);fill-rule:nonzero;"/>
                <path d="M706.714,1719.191C709.097,1720.87 714.127,1724.177 717.462,1724.611C721.965,1725.202 730.387,1713.707 730.387,1713.707L730.295,1713.686C729.911,1713.693 728.083,1714.254 720.13,1720.97C716.018,1724.434 709.012,1716.075 709.012,1716.075C709.012,1716.075 707.696,1717.164 706.714,1719.191Z" style="fill:rgb(170,63,58);fill-rule:nonzero;"/>
                <path d="M709.055,1749.864L719.036,1749.864C722.379,1749.338 724.847,1748.37 728.276,1747.922C733.483,1747.239 735.88,1749.373 736.357,1749.864C736.421,1749.927 736.45,1749.964 736.45,1749.964L778.846,1749.964C779.913,1748.442 778.888,1744.913 777.886,1742.317C776.598,1741.172 776.236,1747.29 775.524,1748.264C774.812,1749.239 740.938,1748.619 738.982,1747.198C737.026,1745.775 731.157,1743.285 722.977,1745.241C715.856,1746.941 705.364,1742.581 702.768,1741.421C701.779,1744.331 700.947,1746.394 700.947,1746.394C700.947,1746.394 700.469,1748.79 709.055,1749.864Z" style="fill:rgb(170,63,58);fill-rule:nonzero;"/>
            </g>
            <g>
                <path d="M827.849,1749.864L837.83,1749.864C841.173,1749.338 843.642,1748.37 847.07,1747.922C852.277,1747.239 854.674,1749.373 855.151,1749.864C855.215,1749.927 855.244,1749.964 855.244,1749.964L897.64,1749.964C898.707,1748.442 897.683,1744.913 896.68,1742.317C896.004,1740.553 894.532,1739.215 892.711,1738.69C888.215,1737.387 879.352,1736.228 871.235,1728.88C866.668,1724.754 849.184,1713.707 849.184,1713.707L849.091,1713.686C848.707,1713.693 846.879,1714.254 838.926,1720.97C834.815,1724.434 827.808,1716.075 827.808,1716.075C827.808,1716.075 826.492,1717.164 825.51,1719.191C824.72,1720.791 824.144,1722.99 824.6,1725.7C825.233,1729.519 823.191,1736.619 821.562,1741.42C820.573,1744.33 819.741,1746.393 819.741,1746.393C819.741,1746.393 819.263,1748.79 827.849,1749.864Z" style="fill:rgb(216,113,107);fill-rule:nonzero;"/>
                <path d="M825.508,1719.191C827.891,1720.87 832.921,1724.177 836.256,1724.611C840.759,1725.202 849.181,1713.707 849.181,1713.707L849.088,1713.686C848.704,1713.693 846.876,1714.254 838.923,1720.97C834.812,1724.434 827.805,1716.075 827.805,1716.075C827.805,1716.075 826.49,1717.164 825.508,1719.191Z" style="fill:rgb(170,63,58);fill-rule:nonzero;"/>
                <path d="M827.849,1749.864L837.83,1749.864C841.173,1749.338 843.642,1748.37 847.07,1747.922C852.277,1747.239 854.674,1749.373 855.151,1749.864C855.215,1749.927 855.244,1749.964 855.244,1749.964L897.64,1749.964C898.707,1748.442 897.683,1744.913 896.68,1742.317C895.392,1741.172 895.03,1747.29 894.318,1748.264C893.607,1749.239 859.733,1748.619 857.776,1747.198C855.82,1745.775 849.951,1743.285 841.771,1745.241C834.651,1746.941 824.158,1742.581 821.562,1741.421C820.573,1744.331 819.741,1746.394 819.741,1746.394C819.741,1746.394 819.263,1748.79 827.849,1749.864Z" style="fill:rgb(170,63,58);fill-rule:nonzero;"/>
            </g>
            <path d="M1101.753,1604.326C1094.735,1603.647 1103.876,1596.63 1098.216,1587.347C1098.216,1587.347 1083.595,1578.781 1085.067,1570.291C1085.067,1570.291 1064.353,1538.599 1046.582,1509.623C1054.279,1508.264 1063.221,1505.434 1072.39,1499.548C1085.067,1531.241 1098.537,1566.897 1098.537,1566.897C1098.537,1566.897 1105.955,1577.378 1113.072,1588.054C1115.43,1591.592 1104.696,1604.553 1101.753,1604.326Z" style="fill:rgb(216,113,107);fill-rule:nonzero;"/>
        </g>
        <g>
            <path d="M2499.264,1374.031C2496.207,1381.502 2475.948,1379.464 2460.326,1368.823C2444.819,1358.297 2422.52,1348.563 2409.844,1339.734C2400.336,1333.283 2390.489,1308.833 2383.018,1293.779C2381.094,1289.929 2379.283,1286.648 2377.812,1284.497C2368.643,1281.781 2369.209,1272.273 2360.719,1269.217C2350.646,1265.709 2353.701,1260.049 2353.701,1260.049C2353.701,1260.049 2360.945,1256.993 2369.774,1257.898C2372.943,1258.352 2379.282,1267.519 2383.017,1273.292C2386.526,1275.896 2390.713,1279.405 2395.242,1283.48C2407.467,1294.347 2421.275,1308.383 2426.822,1315.286C2433.273,1323.324 2475.041,1332.151 2486.36,1341.434C2506.508,1357.957 2499.264,1374.031 2499.264,1374.031Z" style="fill:rgb(237,152,95);fill-rule:nonzero;"/>
            <path d="M2426.945,1489.003L2470.74,1732.119L2485.908,1733.117C2485.908,1733.117 2497.83,1627.24 2487.617,1590.693C2477.404,1554.145 2505.239,1507.923 2497.42,1476.222C2489.6,1444.521 2426.945,1489.003 2426.945,1489.003Z" style="fill:rgb(237,152,95);fill-rule:nonzero;"/>
            <path d="M2477.328,1354.694L2439.088,1348.473C2437.268,1342.26 2436.746,1333.724 2436.721,1326.178C2436.696,1316.804 2437.439,1308.959 2437.439,1308.959L2468.296,1305.985L2482.003,1304.66C2474.475,1319.018 2477.328,1354.694 2477.328,1354.694Z" style="fill:rgb(255,178,125);fill-rule:nonzero;"/>
            <path d="M2478.465,1312.198C2478.465,1312.198 2458.033,1329.622 2436.721,1326.178C2436.696,1316.804 2437.439,1308.959 2437.439,1308.959L2468.296,1305.985L2478.465,1312.198Z" style="fill:rgb(237,152,95);fill-rule:nonzero;"/>
            <path d="M2456.104,1548.889C2448.361,1570.424 2441.406,1592.36 2444.892,1610.348C2445.917,1615.663 2446.558,1621.166 2446.866,1626.772C2447.148,1631.917 2447.165,1637.147 2446.952,1642.393C2445.251,1684.779 2429.109,1727.984 2426.614,1734.427C2426.4,1734.974 2426.289,1735.256 2426.289,1735.256L2412.864,1733.829L2407.088,1478.729C2407.088,1478.729 2468.393,1453.966 2471.811,1486.439C2473.578,1503.23 2464.393,1525.834 2456.104,1548.889Z" style="fill:rgb(255,178,125);fill-rule:nonzero;"/>
            <path d="M2492.746,1563.348C2492.746,1563.348 2488.832,1563.912 2483.013,1564.544C2472.092,1565.74 2454.489,1567.159 2443.61,1565.484C2438.423,1564.689 2435.518,1556.127 2434.15,1544.625C2431.117,1519.134 2435.646,1479.235 2439.764,1477.467C2445.746,1474.904 2498.702,1477.073 2498.702,1477.073C2498.702,1477.073 2510.264,1505.666 2492.746,1563.348Z" style="fill:rgb(184,76,66);fill-rule:nonzero;"/>
            <path d="M2483.867,1564.544C2472.946,1565.74 2455.343,1567.159 2444.464,1565.484C2439.277,1564.689 2451.606,1509.832 2464.033,1497.121C2468.124,1492.936 2485.824,1488.575 2485.824,1488.575C2485.824,1488.575 2494.574,1524.996 2483.867,1564.544Z" style="fill:rgb(170,62,57);fill-rule:nonzero;"/>
            <path d="M2406.864,1477.894C2406.864,1477.894 2395.468,1528.312 2397.177,1568.191C2397.177,1568.191 2423.099,1573.318 2449.589,1568.191C2449.589,1568.191 2493.456,1504.385 2489.753,1483.877C2486.051,1463.366 2417.974,1471.342 2406.864,1477.894Z" style="fill:rgb(184,76,66);fill-rule:nonzero;"/>
            <path d="M2427.697,1302.818C2427.697,1302.818 2463.346,1331.082 2480.606,1308.61C2497.866,1286.138 2514.091,1274.652 2492.059,1255.656C2470.027,1236.66 2458.966,1241.798 2451.38,1247.897C2443.796,1253.997 2418.868,1294.887 2427.697,1302.818Z" style="fill:rgb(255,178,125);fill-rule:nonzero;"/>
            <path d="M2523.537,1264.103C2523.537,1264.103 2521.558,1263.459 2519.285,1264.143C2519.283,1264.12 2519.282,1264.103 2519.282,1264.103C2522.159,1258.78 2520.001,1250.53 2520.001,1250.53C2520.721,1255.054 2516.646,1260.378 2516.646,1260.378C2516.406,1243.611 2474.934,1233.232 2471.098,1232.167C2467.262,1231.102 2467.742,1224.715 2467.742,1224.715C2459.831,1226.312 2451.44,1236.425 2451.68,1246.273C2451.919,1256.12 2460.071,1275.016 2465.344,1275.282C2470.618,1275.549 2468.221,1279.806 2464.625,1285.662C2461.029,1291.516 2465.7,1307.419 2472.173,1313.008C2477.387,1317.51 2480.125,1313.745 2483.182,1312.086C2483.941,1311.674 2484.748,1311.354 2485.59,1311.166C2497.684,1308.467 2510.268,1296.517 2516.526,1281.27C2519.012,1275.213 2519.36,1269.14 2519.351,1266.102C2520.383,1265.497 2522.375,1264.39 2523.537,1264.103Z" style="fill:rgb(44,58,100);fill-rule:nonzero;"/>
            <path d="M2446.951,1642.393C2445.25,1684.779 2429.108,1727.984 2426.613,1734.427L2416.606,1733.829C2417.887,1732.119 2437.542,1643.675 2446.942,1642.392L2446.951,1642.392L2446.951,1642.393Z" style="fill:rgb(237,152,95);fill-rule:nonzero;"/>
            <g>
                <path d="M2487.965,1749.889L2479.498,1749.889C2476.662,1749.494 2474.568,1748.769 2471.66,1748.433C2467.242,1747.92 2465.209,1749.522 2464.805,1749.889C2464.75,1749.938 2464.727,1749.964 2464.727,1749.964L2428.761,1749.964C2427.856,1748.822 2428.725,1746.175 2429.576,1744.228C2430.149,1742.905 2431.398,1741.901 2432.943,1741.506C2436.756,1740.529 2444.275,1739.66 2451.161,1734.148C2455.035,1731.053 2469.867,1722.766 2469.867,1722.766L2469.946,1722.749C2470.271,1722.754 2471.822,1723.176 2478.569,1728.213C2482.056,1730.813 2488.001,1724.542 2488.001,1724.542C2488.001,1724.542 2489.117,1725.358 2489.95,1726.879C2490.62,1728.08 2491.108,1729.729 2490.722,1731.762C2490.185,1734.627 2491.916,1739.953 2493.298,1743.555C2494.137,1745.738 2494.843,1747.285 2494.843,1747.285C2494.843,1747.285 2495.248,1749.083 2487.965,1749.889Z" style="fill:rgb(115,156,243);fill-rule:nonzero;"/>
                <path d="M2489.95,1726.879C2487.929,1728.139 2483.662,1730.62 2480.832,1730.945C2477.012,1731.388 2469.867,1722.765 2469.867,1722.765L2469.946,1722.748C2470.271,1722.753 2471.822,1723.175 2478.569,1728.212C2482.056,1730.812 2488.001,1724.541 2488.001,1724.541C2488.001,1724.541 2489.117,1725.358 2489.95,1726.879Z" style="fill:rgb(65,93,165);fill-rule:nonzero;"/>
                <path d="M2487.965,1749.889L2479.498,1749.889C2476.662,1749.494 2474.568,1748.769 2471.66,1748.433C2467.242,1747.92 2465.209,1749.522 2464.805,1749.889C2464.75,1749.938 2464.727,1749.964 2464.727,1749.964L2428.761,1749.964C2427.856,1748.822 2428.725,1746.175 2429.576,1744.228C2430.668,1743.369 2430.975,1747.957 2431.579,1748.689C2432.183,1749.421 2460.918,1748.956 2462.578,1747.889C2464.237,1746.821 2469.216,1744.953 2476.155,1746.42C2482.195,1747.696 2491.096,1744.425 2493.299,1743.555C2494.138,1745.738 2494.844,1747.285 2494.844,1747.285C2494.844,1747.285 2495.248,1749.083 2487.965,1749.889Z" style="fill:rgb(65,93,165);fill-rule:nonzero;"/>
            </g>
            <g>
                <path d="M2430.103,1749.889L2421.636,1749.889C2418.8,1749.494 2416.706,1748.769 2413.798,1748.433C2409.38,1747.92 2407.347,1749.522 2406.943,1749.889C2406.888,1749.938 2406.865,1749.964 2406.865,1749.964L2370.899,1749.964C2369.995,1748.822 2370.863,1746.175 2371.714,1744.228C2372.287,1742.905 2373.536,1741.901 2375.081,1741.506C2378.894,1740.529 2386.413,1739.66 2393.299,1734.148C2397.173,1731.053 2412.005,1722.766 2412.005,1722.766L2412.084,1722.749C2412.409,1722.754 2413.96,1723.176 2420.707,1728.213C2424.195,1730.813 2430.139,1724.542 2430.139,1724.542C2430.139,1724.542 2431.255,1725.358 2432.088,1726.879C2432.758,1728.08 2433.246,1729.729 2432.86,1731.762C2432.323,1734.627 2434.054,1739.953 2435.436,1743.555C2436.275,1745.738 2436.981,1747.285 2436.981,1747.285C2436.981,1747.285 2437.386,1749.083 2430.103,1749.889Z" style="fill:rgb(115,156,243);fill-rule:nonzero;"/>
                <path d="M2432.088,1726.879C2430.067,1728.139 2425.8,1730.62 2422.97,1730.945C2419.151,1731.388 2412.005,1722.765 2412.005,1722.765L2412.084,1722.748C2412.409,1722.753 2413.96,1723.175 2420.707,1728.212C2424.195,1730.812 2430.139,1724.541 2430.139,1724.541C2430.139,1724.541 2431.255,1725.358 2432.088,1726.879Z" style="fill:rgb(65,93,165);fill-rule:nonzero;"/>
                <path d="M2430.103,1749.889L2421.636,1749.889C2418.8,1749.494 2416.706,1748.769 2413.798,1748.433C2409.38,1747.92 2407.347,1749.522 2406.943,1749.889C2406.888,1749.938 2406.865,1749.964 2406.865,1749.964L2370.899,1749.964C2369.995,1748.822 2370.863,1746.175 2371.714,1744.228C2372.806,1743.369 2373.113,1747.957 2373.717,1748.689C2374.321,1749.421 2403.057,1748.956 2404.716,1747.889C2406.375,1746.821 2411.354,1744.953 2418.293,1746.42C2424.334,1747.696 2433.234,1744.425 2435.437,1743.555C2436.276,1745.738 2436.982,1747.285 2436.982,1747.285C2436.982,1747.285 2437.386,1749.083 2430.103,1749.889Z" style="fill:rgb(65,93,165);fill-rule:nonzero;"/>
            </g>
            <path d="M2499.728,1479.885C2499.728,1479.885 2472.852,1490.883 2431.151,1483.781C2423.528,1482.482 2415.411,1480.577 2406.865,1477.893L2412.249,1381.074L2414.838,1334.613C2414.838,1334.613 2429.229,1330.203 2436.202,1329.776C2436.202,1329.776 2465.401,1333.262 2476.723,1330.271C2476.723,1330.271 2490.396,1336.04 2495.737,1343.517C2501.077,1350.994 2509.691,1421.776 2499.728,1479.885Z" style="fill:rgb(115,156,243);fill-rule:nonzero;"/>
            <path d="M2430.872,1483.825C2423.257,1482.307 2415.395,1480.995 2406.864,1477.893L2412.521,1366.554L2429.562,1364.324C2429.563,1364.324 2444.229,1436.553 2430.872,1483.825Z" style="fill:rgb(100,136,211);fill-rule:nonzero;"/>
            <path d="M2438.48,1374.031C2435.311,1381.502 2415.05,1379.464 2399.542,1368.823C2398.185,1367.92 2396.826,1367.013 2395.354,1366.106C2380.186,1356.6 2360.491,1347.771 2348.946,1339.734C2338.08,1332.262 2326.648,1301.135 2318.951,1287.78C2318.272,1286.535 2317.593,1285.403 2316.914,1284.497C2307.858,1281.668 2308.425,1272.273 2299.935,1269.217C2289.861,1265.709 2292.804,1260.049 2292.804,1260.049C2292.804,1260.049 2300.16,1256.993 2308.876,1257.898C2312.158,1258.352 2318.497,1267.519 2322.119,1273.292C2324.609,1275.217 2327.665,1277.594 2330.835,1280.198C2343.738,1291.404 2359.925,1307.702 2365.924,1315.285C2370.565,1321.058 2393.429,1327.284 2410.182,1333.624C2416.746,1336.227 2422.407,1338.83 2425.576,1341.434C2445.726,1357.957 2438.48,1374.031 2438.48,1374.031Z" style="fill:rgb(255,178,125);fill-rule:nonzero;"/>
            <path d="M2438.48,1374.031C2435.311,1381.502 2415.05,1379.464 2399.542,1368.823C2398.185,1367.92 2396.826,1367.013 2395.354,1366.106C2411.314,1354.222 2410.974,1339.282 2410.182,1333.623C2416.746,1336.226 2422.407,1338.829 2425.576,1341.433C2445.726,1357.957 2438.48,1374.031 2438.48,1374.031Z" style="fill:rgb(115,156,243);fill-rule:nonzero;"/>
            <path d="M2395.242,1283.479C2393.884,1287.214 2390.488,1291.517 2383.017,1293.78C2381.093,1289.93 2379.282,1286.649 2377.811,1284.498C2368.642,1281.782 2369.208,1272.274 2360.718,1269.218C2350.645,1265.71 2353.7,1260.05 2353.7,1260.05C2353.7,1260.05 2360.944,1256.994 2369.773,1257.899C2372.942,1258.353 2379.281,1267.52 2383.016,1273.293C2386.526,1275.895 2390.714,1279.404 2395.242,1283.479Z" style="fill:rgb(255,164,18);fill-rule:nonzero;"/>
            <g>
                <path d="M2369.872,1276.939C2365.559,1280.275 2354.039,1291.941 2354.039,1291.941L2327.48,1257.607C2327.48,1257.607 2341.058,1249.03 2345.595,1245.555C2349.713,1242.4 2361.815,1231.048 2361.815,1231.048L2388.374,1265.382C2388.374,1265.383 2374.188,1273.602 2369.872,1276.939Z" style="fill:rgb(184,76,66);fill-rule:nonzero;"/>
                <path d="M2369.872,1276.939C2365.559,1280.275 2354.039,1291.941 2354.039,1291.941L2335.332,1267.756C2335.332,1267.756 2348.91,1259.179 2353.446,1255.704C2357.564,1252.55 2369.666,1241.197 2369.666,1241.197L2388.374,1265.382C2388.374,1265.383 2374.188,1273.602 2369.872,1276.939Z" style="fill:rgb(170,62,57);fill-rule:nonzero;"/>
                <g transform="matrix(0.6118,0.791,-0.791,0.6118,1908.9355,-1395.6489)">
                    <rect x="2354.763" y="1245.416" width="43.408" height="3.473" style="fill:rgb(184,76,66);"/>
                </g>
                <g transform="matrix(0.6119,0.791,-0.791,0.6119,1917.181,-1355.1763)">
                    <rect x="2317.681" y="1274.1" width="43.409" height="3.473" style="fill:rgb(184,76,66);"/>
                </g>
            </g>
            <g>
                <path d="M2333.783,1262.381L2305.644,1296.86C2302.313,1300.942 2296.245,1301.556 2292.163,1298.225L2278.03,1286.691C2273.715,1283.17 2273.065,1276.754 2276.587,1272.439L2304.383,1238.38C2309.113,1232.583 2316.719,1230.437 2323.526,1232.309C2324.42,1232.554 2325.394,1232.217 2325.878,1231.422C2326.02,1231.194 2326.176,1230.972 2326.351,1230.758L2327.837,1228.937L2338.338,1237.506L2336.852,1239.328C2336.656,1239.568 2336.447,1239.786 2336.225,1239.986C2335.599,1240.55 2335.4,1241.458 2335.79,1242.203C2339.104,1248.533 2338.563,1256.522 2333.783,1262.381Z" style="fill:rgb(174,211,255);fill-opacity:0.5;fill-rule:nonzero;"/>
                <path d="M2333.783,1262.381L2305.644,1296.86C2302.313,1300.942 2296.245,1301.556 2292.163,1298.225L2283.28,1290.976C2278.966,1287.455 2278.316,1281.039 2281.838,1276.724L2309.633,1242.665C2314.364,1236.868 2321.969,1234.722 2328.777,1236.594C2329.104,1236.683 2329.445,1236.694 2329.768,1236.633C2330.318,1236.529 2330.822,1236.208 2331.128,1235.707C2331.27,1235.479 2331.426,1235.257 2331.6,1235.043L2333.086,1233.222L2338.337,1237.506L2336.851,1239.328C2336.655,1239.568 2336.446,1239.786 2336.224,1239.986C2335.598,1240.55 2335.399,1241.458 2335.789,1242.203C2339.104,1248.533 2338.563,1256.522 2333.783,1262.381Z" style="fill:rgb(206,212,234);fill-opacity:0.3;fill-rule:nonzero;"/>
                <path d="M2327.959,1257.628L2299.821,1292.107C2296.489,1296.189 2290.422,1296.803 2286.339,1293.472L2283.28,1290.976C2278.966,1287.455 2278.316,1281.039 2281.838,1276.724L2309.633,1242.665C2314.364,1236.868 2321.969,1234.722 2328.777,1236.594C2329.104,1236.683 2329.445,1236.694 2329.768,1236.633C2329.765,1236.91 2329.829,1237.192 2329.966,1237.45C2333.28,1243.781 2332.74,1251.771 2327.959,1257.628Z" style="fill:rgb(206,212,234);fill-opacity:0.3;fill-rule:nonzero;"/>
                <g transform="matrix(0.6323,-0.7747,0.7747,0.6323,-130.0197,2252.9639)">
                    <rect x="2295.352" y="1244.477" width="26.124" height="37.952" style="fill:rgb(44,58,100);"/>
                </g>
                <g transform="matrix(0.6308,-0.7759,0.7759,0.6308,-93.9183,2266.0002)">
                    <rect x="2332.542" y="1224.162" width="3.567" height="15.069" style="fill:rgb(44,58,100);"/>
                </g>
            </g>
            <path d="M2330.837,1280.197C2328.8,1283.252 2325.178,1285.968 2318.952,1287.78C2318.273,1286.535 2317.594,1285.403 2316.915,1284.497C2307.859,1281.668 2308.426,1272.273 2299.936,1269.217C2289.862,1265.709 2292.805,1260.049 2292.805,1260.049C2292.805,1260.049 2300.161,1256.993 2308.877,1257.898C2312.159,1258.352 2318.498,1267.519 2322.12,1273.292C2324.611,1275.216 2327.667,1277.593 2330.837,1280.197Z" style="fill:rgb(255,164,18);fill-rule:nonzero;"/>
        </g>
        <g>
            <path d="M2204.354,1250.581C2200.109,1250.581 2116.631,1246.336 2116.631,1246.336L2174.641,1308.202L2301.98,1335.317L2204.354,1250.581Z" style="fill:rgb(74,117,203);fill-rule:nonzero;"/>
            <g>
                <g>
                    <path d="M2262.103,1329.758C2259.334,1338.217 2254.463,1364.536 2254.463,1364.536L2187.114,1342.496C2187.114,1342.496 2197.595,1318.463 2200.54,1309.611C2203.212,1301.575 2209.154,1275.147 2209.154,1275.147L2276.503,1297.187C2276.503,1297.188 2264.872,1321.294 2262.103,1329.758Z" style="fill:rgb(240,209,112);fill-rule:nonzero;"/>
                    <path d="M2262.103,1329.758C2259.334,1338.217 2254.463,1364.536 2254.463,1364.536L2207.024,1349.012C2207.024,1349.012 2217.505,1324.979 2220.45,1316.127C2223.122,1308.091 2229.065,1281.662 2229.065,1281.662L2276.503,1297.187C2276.503,1297.188 2264.872,1321.294 2262.103,1329.758Z" style="fill:rgb(220,141,57);fill-opacity:0.3;fill-rule:nonzero;"/>
                    <g transform="matrix(0.3111,-0.9504,0.9504,0.3111,325.9831,3016.6367)">
                        <rect x="2240.875" y="1248.04" width="5.669" height="70.865" style="fill:rgb(220,141,57);"/>
                    </g>
                    <g transform="matrix(0.3109,-0.9504,0.9504,0.3109,240.7371,3044.4585)">
                        <rect x="2217.071" y="1320.779" width="5.669" height="70.864" style="fill:rgb(220,141,57);"/>
                    </g>
                </g>
                <g>
                    <g>
                        <path d="M2274.85,1310.852L2299.165,1348.125C2302.043,1352.538 2300.788,1358.506 2296.375,1361.385L2281.096,1371.352C2276.432,1374.395 2270.121,1373.068 2267.078,1368.403L2243.059,1331.584C2238.971,1325.317 2239.234,1317.419 2243.082,1311.501C2243.587,1310.725 2243.561,1309.693 2242.95,1308.991C2242.776,1308.787 2242.612,1308.571 2242.461,1308.34L2241.177,1306.371L2252.53,1298.965L2253.814,1300.935C2253.984,1301.195 2254.127,1301.46 2254.252,1301.732C2254.6,1302.5 2255.403,1302.964 2256.232,1302.818C2263.27,1301.58 2270.719,1304.519 2274.85,1310.852Z" style="fill:rgb(236,242,253);fill-rule:nonzero;"/>
                        <path d="M2274.85,1310.852L2299.165,1348.125C2302.043,1352.538 2300.788,1358.506 2296.375,1361.385L2286.772,1367.649C2282.107,1370.693 2275.797,1369.365 2272.754,1364.7L2248.735,1327.881C2244.647,1321.614 2244.909,1313.717 2248.757,1307.799C2248.942,1307.513 2249.056,1307.192 2249.096,1306.865C2249.163,1306.309 2249.01,1305.732 2248.626,1305.288C2248.451,1305.085 2248.287,1304.868 2248.137,1304.637L2246.852,1302.668L2252.529,1298.965L2253.813,1300.935C2253.983,1301.195 2254.126,1301.46 2254.251,1301.732C2254.599,1302.5 2255.402,1302.964 2256.231,1302.818C2263.27,1301.58 2270.719,1304.519 2274.85,1310.852Z" style="fill:rgb(229,234,245);fill-rule:nonzero;"/>
                        <path d="M2268.554,1314.958L2292.869,1352.231C2295.748,1356.644 2294.492,1362.613 2290.079,1365.492L2286.772,1367.648C2282.107,1370.692 2275.797,1369.364 2272.754,1364.699L2248.735,1327.88C2244.647,1321.613 2244.909,1313.716 2248.757,1307.798C2248.942,1307.512 2249.056,1307.191 2249.096,1306.864C2249.359,1306.952 2249.646,1306.976 2249.935,1306.924C2256.975,1305.687 2264.423,1308.625 2268.554,1314.958Z" style="fill:rgb(206,212,234);fill-opacity:0.3;fill-rule:nonzero;"/>
                        <g transform="matrix(0.8375,-0.5464,0.5464,0.8375,-361.1164,1456.2012)">
                            <rect x="2249.198" y="1322.288" width="37.953" height="26.123" style="fill:rgb(211,101,44);"/>
                        </g>
                    </g>
                    <g transform="matrix(0.8365,-0.548,0.548,0.8365,-345.726,1443.4664)">
                        <rect x="2238.242" y="1299.241" width="15.069" height="3.567" style="fill:rgb(240,209,112);"/>
                    </g>
                </g>
                <g>
                    <g>
                        <path d="M2191.059,1295.073L2200.082,1338.652C2201.15,1343.811 2197.802,1348.909 2192.643,1349.977L2174.78,1353.676C2169.326,1354.805 2163.936,1351.265 2162.807,1345.811L2153.894,1302.763C2152.376,1295.437 2155.504,1288.18 2161.248,1284.075C2162.003,1283.537 2162.355,1282.567 2162.043,1281.691C2161.955,1281.437 2161.881,1281.175 2161.825,1280.906L2161.348,1278.603L2174.62,1275.855L2175.098,1278.157C2175.161,1278.462 2175.198,1278.761 2175.214,1279.059C2175.257,1279.901 2175.835,1280.626 2176.66,1280.793C2183.664,1282.214 2189.525,1287.669 2191.059,1295.073Z" style="fill:rgb(236,242,253);fill-rule:nonzero;"/>
                        <path d="M2191.059,1295.073L2200.082,1338.652C2201.15,1343.811 2197.802,1348.909 2192.643,1349.977L2181.416,1352.302C2175.962,1353.431 2170.572,1349.891 2169.443,1344.437L2160.529,1301.389C2159.012,1294.062 2162.14,1286.806 2167.884,1282.701C2168.16,1282.503 2168.384,1282.245 2168.54,1281.956C2168.806,1281.464 2168.874,1280.87 2168.679,1280.317C2168.591,1280.063 2168.517,1279.801 2168.461,1279.531L2167.984,1277.229L2174.62,1275.855L2175.098,1278.157C2175.161,1278.462 2175.198,1278.761 2175.214,1279.059C2175.257,1279.901 2175.835,1280.626 2176.66,1280.793C2183.664,1282.214 2189.525,1287.669 2191.059,1295.073Z" style="fill:rgb(229,234,245);fill-rule:nonzero;"/>
                        <path d="M2183.698,1296.598L2192.721,1340.176C2193.789,1345.336 2190.441,1350.434 2185.281,1351.502L2181.416,1352.303C2175.962,1353.432 2170.572,1349.892 2169.443,1344.438L2160.529,1301.39C2159.012,1294.063 2162.14,1286.807 2167.884,1282.702C2168.16,1282.504 2168.384,1282.246 2168.54,1281.957C2168.753,1282.135 2169.011,1282.263 2169.3,1282.318C2176.304,1283.737 2182.165,1289.193 2183.698,1296.598Z" style="fill:rgb(206,212,234);fill-opacity:0.3;fill-rule:nonzero;"/>
                        <g transform="matrix(0.9792,-0.2028,0.2028,0.9792,-221.5456,468.5746)">
                            <rect x="2156.921" y="1302.38" width="37.952" height="26.123" style="fill:rgb(240,209,112);"/>
                        </g>
                    </g>
                    <g transform="matrix(0.9788,-0.2047,0.2047,0.9788,-215.175,470.7642)">
                        <rect x="2160.047" y="1273.524" width="15.069" height="3.567" style="fill:rgb(240,209,112);"/>
                    </g>
                </g>
                <g>
                    <path d="M2345.665,1582.582L2331.289,1674.039L2327.101,1700.412L2318.838,1753.272L2207.006,1753.272C2207.006,1753.272 2192.291,1744.216 2173.162,1732.332C2140.563,1711.845 2095.514,1683.32 2090.986,1678.228C2088.043,1674.945 2082.949,1650.27 2077.968,1622.426C2070.95,1582.696 2064.159,1536.286 2064.159,1536.286L2105.134,1459.769L2069.819,1375.216L2116.454,1246.335L2174.407,1308.209L2301.859,1335.26L2345.665,1582.582Z" style="fill:rgb(105,159,240);fill-rule:nonzero;"/>
                    <g>
                        <path d="M2179.417,1565.744L2166.684,1637.903L2262.188,1571.404L2179.417,1565.744Z" style="fill:rgb(82,134,216);fill-rule:nonzero;"/>
                        <path d="M2331.112,1674.039L2318.662,1753.272L2206.83,1753.272C2206.83,1753.272 2192.115,1744.216 2172.986,1732.332L2163.705,1705.053L2271.235,1656.27L2284.138,1655.59L2331.112,1674.039Z" style="fill:rgb(82,134,216);fill-rule:nonzero;"/>
                        <path d="M2345.665,1582.582L2331.289,1674.039L2327.101,1700.412C2319.857,1696.791 2269.374,1670.756 2271.412,1656.269C2273.563,1640.761 2345.665,1582.582 2345.665,1582.582Z" style="fill:rgb(74,117,203);fill-rule:nonzero;"/>
                        <path d="M2090.987,1678.228C2090.987,1678.228 2158.901,1698.744 2163.853,1705.11C2168.805,1711.477 2182.954,1738.36 2182.954,1738.36L2090.987,1678.228Z" style="fill:rgb(74,117,203);fill-rule:nonzero;"/>
                        <path d="M2166.684,1637.903L2163.854,1705.109L2271.412,1656.27L2345.665,1582.582L2277.751,1492.879L2245.209,1579.186L2166.684,1637.903Z" style="fill:rgb(82,134,216);fill-rule:nonzero;"/>
                        <path d="M2179.417,1565.744C2179.417,1565.744 2233.182,1550.181 2238.135,1543.106C2243.086,1536.032 2277.751,1492.878 2277.751,1492.878C2277.751,1492.878 2268.554,1562.914 2262.188,1571.403C2255.82,1579.894 2179.417,1565.744 2179.417,1565.744Z" style="fill:rgb(74,117,203);fill-rule:nonzero;"/>
                    </g>
                    <path d="M2135.357,1515.007L2077.969,1622.426C2070.951,1582.696 2064.16,1536.286 2064.16,1536.286L2096.645,1498.028L2135.357,1515.007Z" style="fill:rgb(82,134,216);fill-rule:nonzero;"/>
                    <path d="M2135.357,1515.007C2135.357,1515.007 2104.23,1502.783 2064.161,1536.286L2105.136,1459.769L2135.357,1515.007Z" style="fill:rgb(74,117,203);fill-rule:nonzero;"/>
                    <path d="M2069.82,1375.217L2164.561,1399.969L2204.178,1460.336L2069.82,1375.217Z" style="fill:rgb(74,117,203);fill-rule:nonzero;"/>
                </g>
            </g>
            <g>
                <path d="M2010.456,917.569C2010.382,915.531 2008.805,893.568 1975.35,892.421C1975.35,892.421 1991.801,894.382 1994.643,901.614C1994.643,901.614 1983.441,892.677 1974.319,895.552C1965.197,898.426 1959.839,914.408 1959.786,919.664C1959.732,924.92 1964.8,941.866 1970.59,943.307C1972.783,943.853 1975.309,943.706 1977.602,943.316C1976.061,945.721 1974.552,948.375 1973.109,951.337C1959.76,978.739 1973.526,1005.52 1984.828,1002.561C1992.076,1000.664 1994.126,1013.031 1994.126,1013.031L2064.542,956.025C2064.542,956.025 2038.678,902.508 2010.456,917.569Z" style="fill:rgb(44,58,100);fill-rule:nonzero;"/>
                <path d="M2207.12,1234.161C2203.724,1230.766 2183.237,1231.558 2183.237,1231.558C2183.237,1231.558 2171.918,1227.031 2157.995,1220.918C2138.641,1212.315 2114.305,1200.77 2108.984,1194.884C2096.646,1181.188 2081.818,1135.233 2067.896,1104.899C2066.651,1102.069 2065.406,1099.352 2064.161,1096.75C2064.048,1096.523 2063.934,1096.184 2063.709,1095.957C2063.029,1094.712 2062.463,1093.58 2061.897,1092.561C2061.897,1092.448 2061.784,1092.334 2061.67,1092.221C2059.066,1087.24 2056.351,1083.28 2053.859,1080.675L2053.859,1080.562C2050.803,1077.281 2047.86,1075.921 2045.144,1077.054C2045.144,1077.054 2039.824,1079.771 2034.391,1086.222C2033.711,1086.788 2033.259,1087.466 2032.806,1088.147C2029.524,1092.335 2026.354,1097.88 2024.43,1104.899C2022.958,1110.218 2022.165,1116.331 2022.505,1123.462C2022.958,1135.119 2028.731,1149.721 2036.993,1164.437C2037.333,1165.117 2037.672,1165.794 2038.126,1166.473C2053.972,1194.205 2078.308,1221.938 2093.136,1230.993C2102.87,1236.991 2127.32,1240.613 2147.92,1242.65C2161.615,1244.123 2173.728,1244.801 2178.707,1245.141C2180.858,1247.518 2196.478,1265.402 2202.364,1260.195C2208.817,1254.649 2210.516,1237.558 2207.12,1234.161Z" style="fill:rgb(237,152,95);fill-rule:nonzero;"/>
                <path d="M2039.971,1153.049C2038.603,1160.637 2036.347,1167.132 2033.63,1173.284C2031.365,1178.437 2028.784,1183.334 2026.127,1188.435C2018.342,1203.432 2001.064,1210.311 1999.388,1239.638C1998.815,1249.74 2000.089,1262.506 2004.242,1279.178C2024.691,1361.36 1863.148,1291.347 1872.284,1270.06C1890.443,1227.76 1915.011,1203.833 1915.84,1168.464C1915.848,1168.369 1915.831,1168.284 1915.823,1168.191C1915.738,1166.473 1915.678,1161.876 1915.644,1155.8C1915.559,1140.939 1915.61,1117.242 1915.755,1105.253C1915.755,1104.972 1915.764,1104.698 1915.764,1104.433C1915.832,1099.297 1915.815,1095.58 1915.653,1094.597C1928.907,1046.384 1955.218,1047.161 1964.191,1047.649C1967.515,1047.829 1971.002,1048.179 1973.864,1048.529C1979.624,1045.53 1989.947,1030.934 1995.928,1006.52L1997.945,1007.468L2031.87,1023.414C2031.87,1023.414 2028.264,1034.446 2025.606,1045.017C2023.529,1053.281 2022.043,1061.262 2023.29,1063.5C2025.965,1064.586 2027.563,1065.27 2027.563,1065.27C2027.563,1065.27 2027.563,1065.278 2027.571,1065.304C2028.126,1066.697 2046.926,1114.568 2039.971,1153.049Z" style="fill:rgb(255,178,125);fill-rule:nonzero;"/>
                <path d="M2033.63,1173.284C2031.365,1178.437 2028.784,1183.334 2026.127,1188.435C2018.342,1203.432 2001.064,1210.311 1999.388,1239.638C1998.867,1239.673 1998.337,1239.699 1997.799,1239.724C1934.563,1242.287 1915.822,1168.191 1915.822,1168.191C1915.737,1166.473 1915.677,1161.876 1915.643,1155.8L2029.417,1160.251C2029.417,1160.252 2031.57,1165.49 2033.63,1173.284Z" style="fill:rgb(237,152,95);fill-rule:nonzero;"/>
                <path d="M2034.971,1726.958L2022.555,1733.427C2022.555,1733.427 1955.055,1640.317 1947.056,1561.041C1945.629,1546.89 1946.098,1533.183 1949.183,1520.519C1949.183,1520.519 1947.833,1512.7 1945.569,1499.753C1943.466,1487.652 1940.561,1471.092 1937.237,1452.249C1929.589,1408.855 1919.693,1353.395 1911.994,1312.626L1916.027,1311.326L2002.584,1283.4C2002.584,1283.4 2030.511,1364.753 2014.855,1487.72C2013.368,1499.367 2011.488,1511.391 2009.164,1523.756C2007.455,1532.815 2007.198,1545.162 2007.908,1559.331C2011.189,1624.14 2034.971,1726.958 2034.971,1726.958Z" style="fill:rgb(255,178,125);fill-rule:nonzero;"/>
                <path d="M1947.432,1510.435C1994.363,1376.802 1987.433,1341.842 1987.433,1341.842L1930.444,1359.668C1937.707,1422.212 1935.133,1437.408 1945.68,1500.385L1947.432,1510.435Z" style="fill:rgb(237,152,95);fill-rule:nonzero;"/>
                <path d="M2016.25,1341.842C2016.378,1343.21 2016.348,1345.401 2014.972,1345.375C2010.649,1345.272 1998.914,1344.91 1987.437,1346.09C1983.685,1346.474 1979.712,1346.995 1975.619,1347.679C1970.21,1348.585 1951.811,1350.192 1945.155,1350.755C1943.625,1350.883 1942.719,1350.96 1942.719,1350.96L1968.637,1268.634L2001.109,1260.088C2001.109,1260.088 2009.738,1273.77 2016.25,1341.842Z" style="fill:rgb(168,210,159);fill-rule:nonzero;"/>
                <path d="M1987.437,1346.09C1983.685,1346.474 1979.712,1346.995 1975.619,1347.679C1970.21,1348.585 1951.811,1350.192 1945.155,1350.755L1974.611,1310.079C1981.13,1320.23 1987.54,1333.442 1987.437,1346.09Z" style="fill:rgb(130,179,120);fill-rule:nonzero;"/>
                <path d="M1976.854,1284.306C1976.854,1284.306 1973.744,1313.147 1968.129,1352.311C1961.839,1396.226 1952.388,1453.122 1940.647,1496.856C1934.435,1519.989 1927.59,1539.438 1920.215,1551.342C1917.686,1555.426 1914.926,1562.263 1912.046,1570.962C1895.084,1622.252 1874.207,1738.35 1874.207,1738.35L1864.687,1742.187C1864.687,1742.187 1828.002,1637.864 1859.791,1553.154C1863.03,1544.532 1866.978,1536.106 1871.746,1528.013C1872.293,1527.073 1872.669,1526.056 1872.541,1524.98C1872.541,1524.971 1872.541,1524.962 1872.532,1524.946C1872.114,1521.417 1871.088,1512.581 1869.917,1500.164C1866.678,1465.905 1862.303,1404.421 1866.234,1352.191C1866.482,1348.936 1866.755,1345.713 1867.072,1342.535C1869.9,1313.78 1875.557,1288.699 1885.752,1273.839L1976.854,1284.306Z" style="fill:rgb(255,178,125);fill-rule:nonzero;"/>
                <path d="M1922.206,1343.27C1922.206,1343.27 1921.967,1346.03 1921.445,1350.883C1918.822,1375.451 1909.071,1453.787 1887.135,1501.052C1882.76,1510.478 1877.906,1518.664 1872.531,1524.946C1872.113,1521.417 1871.087,1512.581 1869.916,1500.164C1866.677,1465.905 1862.302,1404.421 1866.233,1352.191C1866.481,1348.936 1866.754,1345.713 1867.071,1342.535L1922.206,1343.27Z" style="fill:rgb(237,152,95);fill-rule:nonzero;"/>
                <path d="M1985.301,1264.079L1986.933,1278.076L1969.492,1352.382C1969.279,1352.322 1888.026,1348.679 1864.953,1352.382C1856.944,1353.667 1863.577,1350.133 1861.88,1322.889C1858.402,1267.071 1884.893,1243.785 1884.893,1243.785C1884.893,1243.785 1957.955,1271.343 1985.301,1264.079Z" style="fill:rgb(168,210,159);fill-rule:nonzero;"/>
                <path d="M2031.872,1023.418C2031.872,1023.418 2028.266,1034.446 2025.608,1045.02C2005.78,1039.488 1999.758,1018.645 1997.946,1007.471L2031.872,1023.418Z" style="fill:rgb(237,152,95);fill-rule:nonzero;"/>
                <path d="M2068.014,1104.85C2066.305,1099.723 2054.882,1079.797 2054.882,1079.797C2054.882,1079.797 2047.687,1073.166 2027.563,1065.271C2027.563,1065.271 2027.563,1065.28 2027.571,1065.305C2027.896,1066.484 2036.45,1097.487 2033.331,1104.101C2030.152,1110.834 1970.061,1089.104 1966.78,1084.147C1964.148,1080.174 1964.071,1059.135 1964.148,1050.931C1964.165,1048.898 1964.19,1047.65 1964.19,1047.65C1964.19,1047.65 1941.75,1044.608 1929.145,1049.718C1929.145,1049.718 1934.119,1060.528 1935.956,1072.466C1936.127,1073.594 1936.272,1074.73 1936.383,1075.866C1936.622,1078.276 1936.699,1080.685 1936.563,1083.027C1936.212,1088.983 1930.641,1093.624 1923.189,1099.058C1920.865,1100.75 1918.353,1102.519 1915.763,1104.433C1915.763,1104.699 1915.754,1104.971 1915.754,1105.253C1915.549,1122.148 1915.524,1162.269 1915.822,1168.191C1915.831,1168.285 1915.831,1168.371 1915.839,1168.464C1926.597,1168.353 1951.593,1168.635 1976.905,1172.745C1985.074,1174.069 1993.286,1175.804 2001.054,1178.052C2010.3,1180.709 2018.922,1184.111 2026.126,1188.435C2026.425,1188.614 2026.724,1188.793 2027.015,1188.973C2027.015,1188.973 2037.859,1167.583 2049.763,1141.939C2050.19,1141.007 2050.583,1140.085 2050.933,1139.154C2054.751,1129.03 2054.108,1118.621 2052.819,1109.302C2059.537,1104.528 2068.014,1104.85 2068.014,1104.85Z" style="fill:rgb(115,156,243);fill-rule:nonzero;"/>
                <path d="M2036.048,1035.096C2036.048,1035.096 1988.609,1024.117 1995.901,994.679C2003.193,965.242 2001.981,943.999 2032.578,949.764C2063.175,955.529 2066.255,968.214 2066.211,978.632C2066.166,989.05 2048.575,1037.192 2036.048,1035.096Z" style="fill:rgb(255,178,125);fill-rule:nonzero;"/>
                <path d="M2027.016,1188.974C2026.725,1188.794 2026.426,1188.615 2026.127,1188.436C2018.923,1184.112 2010.301,1180.71 2001.055,1178.053C1993.287,1175.805 1985.075,1174.071 1976.906,1172.746C1951.594,1168.636 1926.599,1168.353 1915.84,1168.465C1915.831,1168.37 1915.831,1168.285 1915.823,1168.192C1915.524,1162.27 1915.55,1122.149 1915.755,1105.254C1915.755,1104.973 1915.764,1104.699 1915.764,1104.434C1918.353,1102.52 1920.866,1100.751 1923.19,1099.059C1953.584,1115.252 2010.634,1149.802 2027.016,1188.974Z" style="fill:rgb(100,136,211);fill-rule:nonzero;"/>
                <path d="M2068.878,961.919C2063.777,951.25 2057.775,951.819 2054.022,953.711C2031.731,933.087 2009.868,949.936 2009.868,949.936C2001.453,970.266 1983.215,978.572 1983.215,978.572C1983.215,978.572 1990.502,986.034 2011.625,985.87C2018.077,985.82 2024.563,982.857 2030.466,978.775C2019.081,990.242 2005.732,997.223 2005.732,997.223C2032.172,992.164 2049.903,961.553 2051.719,958.301C2053.959,961.609 2058.243,968.65 2058.605,974.596C2059.094,982.677 2056.315,998.368 2060.941,998.962C2060.939,998.962 2076.526,977.921 2068.878,961.919Z" style="fill:rgb(44,58,100);fill-rule:nonzero;"/>
                <g>
                    <path d="M1857.008,1749.861L1867.258,1749.861C1870.692,1749.32 1873.227,1748.327 1876.748,1747.867C1882.096,1747.166 1884.558,1749.357 1885.047,1749.861C1885.113,1749.926 1885.142,1749.964 1885.142,1749.964L1928.683,1749.964C1929.779,1748.401 1928.727,1744.777 1927.697,1742.11C1927.003,1740.298 1925.49,1738.924 1923.62,1738.384C1919.003,1737.047 1909.9,1735.856 1901.564,1728.31C1896.874,1724.072 1878.917,1712.727 1878.917,1712.727L1878.822,1712.705C1878.427,1712.713 1876.55,1713.29 1868.382,1720.186C1864.16,1723.744 1856.964,1715.16 1856.964,1715.16C1856.964,1715.16 1855.613,1716.277 1854.605,1718.359C1853.794,1720.004 1853.202,1722.26 1853.67,1725.045C1854.32,1728.968 1852.223,1736.258 1850.55,1741.19C1849.534,1744.178 1848.68,1746.297 1848.68,1746.297C1848.68,1746.297 1848.19,1748.758 1857.008,1749.861Z" style="fill:rgb(184,76,66);fill-rule:nonzero;"/>
                    <path d="M1854.605,1718.359C1857.052,1720.084 1862.217,1723.481 1865.644,1723.926C1870.269,1724.532 1878.918,1712.727 1878.918,1712.727L1878.823,1712.705C1878.428,1712.713 1876.551,1713.29 1868.383,1720.186C1864.161,1723.744 1856.965,1715.16 1856.965,1715.16C1856.965,1715.16 1855.613,1716.277 1854.605,1718.359Z" style="fill:rgb(170,62,57);fill-rule:nonzero;"/>
                    <path d="M1857.008,1749.861L1867.258,1749.861C1870.692,1749.32 1873.227,1748.327 1876.748,1747.867C1882.096,1747.166 1884.558,1749.357 1885.047,1749.861C1885.113,1749.926 1885.142,1749.964 1885.142,1749.964L1928.683,1749.964C1929.779,1748.401 1928.727,1744.777 1927.697,1742.11C1926.375,1740.933 1926.002,1747.216 1925.271,1748.217C1924.54,1749.218 1889.751,1748.582 1887.742,1747.121C1885.733,1745.66 1879.706,1743.102 1871.304,1745.112C1863.991,1746.858 1853.216,1742.38 1850.549,1741.188C1849.533,1744.176 1848.679,1746.295 1848.679,1746.295C1848.679,1746.295 1848.19,1748.758 1857.008,1749.861Z" style="fill:rgb(170,62,57);fill-rule:nonzero;"/>
                </g>
                <path d="M2137.734,1260.648C2137.734,1260.648 2118.945,1247.179 2107.739,1249.783C2097.778,1252.046 2076.498,1247.518 2072.31,1246.613C2067.33,1243.896 2061.331,1240.613 2054.993,1236.991C2039.712,1228.389 2022.167,1217.862 2010.169,1209.146C2003.265,1204.167 1998.058,1199.751 1996.247,1196.583C1993.417,1191.715 1990.247,1184.019 1986.739,1174.512C1984.928,1169.531 1983.004,1164.097 1981.079,1158.324C1977.683,1148.816 1974.288,1138.515 1970.779,1128.217C1964.44,1109.427 1957.649,1090.524 1951.197,1075.922C1947.009,1066.754 1942.933,1059.17 1939.085,1054.53C1936.029,1050.794 1912.825,1054.189 1912.599,1087.013C1912.486,1088.826 1912.599,1090.749 1912.712,1092.786C1912.939,1098.558 1914.07,1105.578 1915.768,1113.274C1918.484,1126.177 1923.012,1141.118 1928.671,1156.287C1930.255,1160.361 1931.84,1164.55 1933.539,1168.737C1945.763,1199.073 1961.497,1227.37 1974.74,1236.99C1975.306,1237.443 1975.759,1237.783 1976.325,1238.123C1981.871,1241.633 1990.021,1245.141 1999.415,1248.423C2012.772,1252.952 2028.618,1257.025 2042.767,1260.421L2042.88,1260.421C2051.144,1262.233 2058.728,1263.931 2065.066,1265.176C2065.066,1265.176 2066.424,1265.515 2068.801,1265.967C2074.8,1267.439 2087.138,1270.609 2098.796,1275.137C2115.096,1281.588 2125.283,1270.948 2132.526,1267.892C2139.772,1264.95 2137.734,1260.648 2137.734,1260.648Z" style="fill:rgb(255,178,125);fill-rule:nonzero;"/>
                <g>
                    <path d="M2010.292,1749.861L2020.541,1749.861C2023.975,1749.32 2026.51,1748.327 2030.031,1747.867C2035.379,1747.166 2037.841,1749.357 2038.33,1749.861C2038.396,1749.926 2038.426,1749.964 2038.426,1749.964L2081.967,1749.964C2083.063,1748.401 2082.011,1744.777 2080.981,1742.11C2080.287,1740.298 2078.775,1738.924 2076.905,1738.384C2072.288,1737.047 2063.184,1735.856 2054.849,1728.31C2050.159,1724.072 2032.202,1712.727 2032.202,1712.727L2032.107,1712.705C2031.712,1712.713 2029.835,1713.29 2021.667,1720.186C2017.444,1723.744 2010.249,1715.16 2010.249,1715.16C2010.249,1715.16 2008.897,1716.277 2007.889,1718.359C2007.078,1720.004 2006.487,1722.26 2006.954,1725.045C2007.604,1728.968 2005.508,1736.258 2003.835,1741.19C2002.819,1744.178 2001.964,1746.297 2001.964,1746.297C2001.964,1746.297 2001.474,1748.758 2010.292,1749.861Z" style="fill:rgb(184,76,66);fill-rule:nonzero;"/>
                    <path d="M2007.888,1718.359C2010.335,1720.084 2015.5,1723.481 2018.927,1723.926C2023.551,1724.532 2032.201,1712.727 2032.201,1712.727L2032.106,1712.705C2031.711,1712.713 2029.834,1713.29 2021.666,1720.186C2017.443,1723.744 2010.248,1715.16 2010.248,1715.16C2010.248,1715.16 2008.896,1716.277 2007.888,1718.359Z" style="fill:rgb(170,62,57);fill-rule:nonzero;"/>
                    <path d="M2010.292,1749.861L2020.541,1749.861C2023.975,1749.32 2026.51,1748.327 2030.031,1747.867C2035.379,1747.166 2037.841,1749.357 2038.33,1749.861C2038.396,1749.926 2038.426,1749.964 2038.426,1749.964L2081.967,1749.964C2083.063,1748.401 2082.011,1744.777 2080.981,1742.11C2079.659,1740.933 2079.286,1747.216 2078.555,1748.217C2077.824,1749.218 2043.035,1748.582 2041.027,1747.121C2039.019,1745.66 2032.991,1743.102 2024.589,1745.112C2017.276,1746.858 2006.5,1742.38 2003.834,1741.188C2002.818,1744.176 2001.963,1746.295 2001.963,1746.295C2001.963,1746.295 2001.474,1748.758 2010.292,1749.861Z" style="fill:rgb(170,62,57);fill-rule:nonzero;"/>
                </g>
                <path d="M1951.875,1075.969C1929.679,1069.962 1912.558,1086.976 1912.558,1086.976C1912.837,1054.205 1929.144,1049.718 1929.144,1049.718C1935.83,1047 1943.885,1058.365 1951.875,1075.969Z" style="fill:rgb(115,156,243);fill-rule:nonzero;"/>
            </g>
            <path d="M2133.901,1268.525C2126.546,1271.643 2116.201,1282.502 2099.651,1275.918C2087.813,1271.298 2075.286,1268.064 2069.194,1266.562C2066.781,1266.1 2065.402,1265.754 2065.402,1265.754C2058.965,1264.483 2051.264,1262.75 2042.875,1260.902C2049.771,1252.354 2053.679,1241.497 2055.173,1236.991C2061.61,1240.688 2067.7,1244.038 2072.757,1246.81C2077.01,1247.733 2098.617,1252.354 2108.731,1250.044C2120.11,1247.388 2139.189,1261.132 2139.189,1261.132C2139.189,1261.132 2141.257,1265.522 2133.901,1268.525Z" style="fill:rgb(216,113,107);fill-rule:nonzero;"/>
            <path d="M2202.366,1260.195C2196.48,1265.402 2180.86,1247.518 2178.709,1245.141C2173.73,1244.801 2161.617,1244.122 2147.922,1242.65C2152.223,1235.633 2156.185,1225.56 2157.995,1220.919C2171.918,1227.031 2183.237,1231.559 2183.237,1231.559C2183.237,1231.559 2203.724,1230.767 2207.12,1234.162C2210.516,1237.558 2208.817,1254.649 2202.366,1260.195Z" style="fill:rgb(216,113,107);fill-rule:nonzero;"/>
        </g>
        <g>
            <path d="M1179.433,1689.659L1153.622,1731.387C1150.566,1736.326 1144.021,1737.869 1139.08,1734.814L1121.976,1724.234C1116.753,1721.004 1115.123,1714.085 1118.353,1708.862L1143.849,1667.644C1148.188,1660.628 1156.193,1657.191 1163.903,1658.26C1164.915,1658.4 1165.932,1657.892 1166.346,1656.953C1166.468,1656.683 1166.607,1656.418 1166.767,1656.159L1168.131,1653.955L1180.84,1661.816L1179.476,1664.02C1179.296,1664.311 1179.099,1664.579 1178.885,1664.83C1178.282,1665.537 1178.195,1666.557 1178.728,1667.315C1183.261,1673.76 1183.817,1682.57 1179.433,1689.659Z" style="fill:rgb(137,190,244);fill-opacity:0.5;fill-rule:nonzero;"/>
            <path d="M1179.433,1689.659L1153.622,1731.387C1150.566,1736.326 1144.021,1737.869 1139.08,1734.814L1128.331,1728.165C1123.108,1724.935 1121.478,1718.016 1124.708,1712.794L1150.204,1671.575C1154.543,1664.559 1162.549,1661.122 1170.258,1662.19C1170.629,1662.241 1171.003,1662.204 1171.348,1662.091C1171.934,1661.898 1172.438,1661.475 1172.702,1660.884C1172.824,1660.614 1172.963,1660.349 1173.123,1660.09L1174.487,1657.885L1180.841,1661.817L1179.477,1664.021C1179.297,1664.312 1179.1,1664.58 1178.886,1664.831C1178.283,1665.538 1178.196,1666.558 1178.729,1667.316C1183.261,1673.76 1183.817,1682.57 1179.433,1689.659Z" style="fill:rgb(206,212,234);fill-opacity:0.3;fill-rule:nonzero;"/>
            <path d="M1171.683,1662.955C1171.495,1662.692 1171.385,1662.394 1171.349,1662.091C1171.004,1662.203 1170.63,1662.24 1170.259,1662.19C1162.55,1661.122 1154.545,1664.559 1150.205,1671.575L1124.709,1712.794C1121.479,1718.016 1123.109,1724.935 1128.332,1728.165L1132.034,1730.455C1136.974,1733.511 1143.519,1731.968 1146.575,1727.028L1172.386,1685.3C1176.77,1678.211 1176.213,1669.4 1171.683,1662.955Z" style="fill:rgb(206,212,234);fill-opacity:0.3;fill-rule:nonzero;"/>
            <g transform="matrix(0.5261,-0.8505,0.8505,0.5261,-895.1494,1782.6901)">
                <rect x="1137.455" y="1673.552" width="28.8" height="41.842" style="fill:rgb(44,58,100);"/>
            </g>
            <g transform="matrix(0.5243,-0.8515,0.8515,0.5243,-850.9358,1788.7886)">
                <rect x="1173.656" y="1647.734" width="3.932" height="16.614" style="fill:rgb(44,58,100);"/>
            </g>
        </g>
        <g>
            <g>
                <path d="M3145.02,1749.43C3144.64,1749.62 3143.991,1749.8 3143.11,1749.96L3064.961,1749.96C3065.581,1747.22 3068.001,1741.67 3077.501,1740.13C3089.841,1738.13 3111.241,1730.95 3116.021,1715.17C3116.171,1714.65 3116.312,1714.13 3116.431,1713.6C3120.211,1696.72 3147.782,1718.77 3147.782,1718.77C3147.782,1718.77 3147.861,1719.43 3147.982,1720.55C3148.609,1726.689 3150.26,1746.811 3145.02,1749.43Z" style="fill:rgb(35,56,98);fill-rule:nonzero;"/>
                <path d="M3235.57,1749.43C3235.189,1749.62 3234.54,1749.8 3233.66,1749.96L3155.51,1749.96C3156.13,1747.22 3158.55,1741.67 3168.05,1740.13C3179.41,1738.29 3198.43,1732.061 3205.12,1718.78C3205.93,1717.16 3206.57,1715.429 3206.98,1713.599C3210.769,1696.719 3238.33,1718.769 3238.33,1718.769C3238.33,1718.769 3238.47,1719.9 3238.64,1721.73C3239.33,1728.92 3240.52,1746.96 3235.57,1749.43Z" style="fill:rgb(35,56,98);fill-rule:nonzero;"/>
                <path d="M3197.685,1290.664C3197.685,1290.664 3188.064,1469.166 3181.838,1553.945C3181.838,1554.058 3181.838,1554.398 3181.725,1554.963C3181.725,1555.982 3181.725,1557.001 3181.612,1558.02C3180.028,1577.15 3177.65,1595.938 3174.821,1613.709L3174.821,1613.936C3174.368,1616.54 3173.916,1619.143 3173.462,1621.747C3164.181,1677.321 3151.617,1719.882 3151.617,1719.882C3125.356,1725.428 3112.341,1712.412 3112.341,1712.412C3112.341,1712.412 3106.793,1657.287 3105.435,1622.765C3104.643,1602.956 3096.607,1498.143 3089.929,1412.911C3084.949,1350.091 3083.024,1297.683 3083.024,1297.683L3197.685,1290.664Z" style="fill:rgb(43,71,139);fill-rule:nonzero;"/>
                <path d="M3197.685,1290.664C3197.685,1290.664 3188.064,1469.166 3181.838,1553.945C3181.838,1554.058 3181.838,1554.398 3181.725,1554.963C3181.045,1561.301 3176.745,1596.957 3174.821,1613.709L3174.821,1613.936C3174.368,1616.54 3173.916,1619.143 3173.462,1621.747L3089.929,1412.911C3084.949,1350.091 3083.024,1297.683 3083.024,1297.683L3197.685,1290.664Z" style="fill:rgb(35,56,98);fill-rule:nonzero;"/>
                <path d="M3090.679,1287.506C3090.679,1287.506 3143.951,1448.86 3171.952,1549.002C3199.778,1648.515 3199.778,1717.844 3199.778,1717.844C3199.778,1717.844 3243.498,1726.158 3247.412,1718.787C3247.412,1718.787 3260.367,1524.212 3233.977,1476.449C3219.066,1449.461 3208.855,1374.27 3212.011,1349.106C3215.167,1323.942 3217.749,1273.523 3217.749,1273.523L3090.679,1287.506Z" style="fill:rgb(43,71,139);fill-rule:nonzero;"/>
            </g>
            <path d="M3084.796,1038.137C3084.796,1038.137 3048.915,1082.282 3018.24,1086.242C3018.24,1086.242 3020.957,1074.697 3029.559,1063.151C3027.521,1060.208 3025.824,1057.492 3024.125,1055.002C3016.655,1043.118 3013.146,1035.986 3013.146,1035.986L3026.729,1008.594L3034.993,991.842C3051.518,1031.007 3084.796,1038.137 3084.796,1038.137Z" style="fill:rgb(255,178,125);fill-rule:nonzero;"/>
            <g>
                <path d="M3013.803,1363.885L3013.449,1373.495C3013.449,1373.495 2994.772,1385.389 3009.755,1403.679C3009.755,1403.679 3016.619,1410.885 3020.885,1405.667C3025.151,1400.449 3022.545,1401.914 3028.767,1394.672C3034.989,1387.43 3036.356,1378.347 3031.662,1372.73L3029.818,1365.347L3013.803,1363.885Z" style="fill:rgb(171,112,65);fill-rule:nonzero;"/>
                <path d="M3023.413,1372.633C3014.718,1369.26 3006.709,1363.356 3006.709,1363.356C3006.709,1363.356 3028.5,1277.842 3029.632,1269.49C3030.763,1261.136 3013.854,1143.161 3013.854,1143.161L3084.012,1092.216C3084.012,1092.216 3080.248,1254.794 3076.965,1275.902C3071.541,1310.783 3036.913,1374.82 3036.913,1374.82C3036.913,1374.82 3030.243,1375.282 3023.413,1372.633Z" style="fill:rgb(100,136,211);fill-rule:nonzero;"/>
            </g>
            <path d="M3215.795,1280.718C3200.061,1298.828 3184.441,1313.543 3164.406,1325.202C3140.863,1339.237 3110.672,1352.639 3099.774,1350.33C3090.068,1348.273 3086.286,1344.538 3085.154,1344.198C3084.248,1343.973 3080.193,1321.805 3063.101,1283.433C3062.421,1281.962 3061.629,1280.265 3061.177,1278.792L3060.836,1278.227C3054.157,1263.287 3047.481,1247.326 3040.915,1231.48C3026.54,1196.503 3013.976,1162.208 3010.127,1141.72C3005.486,1117.61 3011.259,1097.688 3017.711,1082.07L3023.144,1069.618C3033.332,1067.241 3042.839,1062.148 3050.423,1052.866C3058.572,1042.792 3067.634,1031.346 3070.124,1031.798C3096.384,1037.458 3125.468,1072.674 3149.237,1119.083C3152.407,1124.968 3155.349,1131.08 3158.179,1137.305C3161.575,1144.777 3164.744,1152.361 3167.8,1160.17C3181.61,1195.486 3197.23,1225.254 3208.209,1245.629C3210.246,1249.363 3212.17,1252.873 3213.868,1255.928C3216.924,1261.701 3219.415,1266.231 3221,1269.399C3222.473,1272.342 3217.945,1278.341 3215.795,1280.718Z" style="fill:rgb(115,156,243);fill-rule:nonzero;"/>
            <path d="M3208.211,1245.629C3136.675,1224.236 3102.605,1108.781 3102.605,1108.781L3125.696,1098.141C3125.696,1098.141 3135.43,1106.404 3149.239,1119.082C3152.409,1124.967 3155.351,1131.079 3158.181,1137.304C3161.577,1144.776 3164.746,1152.36 3167.802,1160.169C3181.611,1195.486 3197.231,1225.254 3208.211,1245.629Z" style="fill:rgb(100,136,211);fill-rule:nonzero;"/>
            <path d="M3221.988,1176.204C3219.385,1173.755 3215.253,1173.88 3212.802,1176.482L2767.762,1649.311L2708.795,1648.883C2706.488,1648.866 2702.829,1651.452 2700.663,1654.628C2698.714,1657.488 2698.63,1659.872 2700.31,1660.336L2612.378,1746.982C2611.134,1748.209 2610.538,1749.664 2611.049,1750.231C2611.186,1750.382 2611.388,1750.455 2611.635,1750.456C2612.31,1750.461 2613.318,1749.934 2614.231,1749.034L2704.121,1660.459L2715.751,1660.543L2636.598,1747.441C2635.425,1748.728 2635.01,1750.105 2635.67,1750.517C2635.796,1750.595 2635.95,1750.632 2636.126,1750.633C2636.882,1750.638 2638.04,1749.974 2638.99,1748.93L2719.474,1660.57L2733.561,1660.672L2658.051,1747.727C2656.915,1749.036 2656.583,1750.372 2657.307,1750.711C2657.419,1750.764 2657.549,1750.789 2657.694,1750.79C2658.488,1750.796 2659.714,1750.063 2660.673,1748.958L2737.229,1660.699L2750.886,1660.798L2678.619,1747.996C2677.521,1749.32 2677.265,1750.615 2678.045,1750.889C2678.142,1750.922 2678.249,1750.94 2678.365,1750.94C2679.193,1750.946 2680.482,1750.149 2681.444,1748.989L2754.511,1660.825L2764.602,1660.898L2704.765,1748.672C2703.844,1750.023 2703.892,1751.125 2704.873,1751.132C2705.854,1751.139 2707.397,1750.049 2708.318,1748.697L2768.156,1660.923L2777.347,1660.99L2730.081,1749.341C2729.46,1750.504 2729.653,1751.312 2730.482,1751.318C2730.598,1751.319 2730.727,1751.303 2730.868,1751.272C2732.013,1751.012 2733.514,1749.727 2734.224,1748.399L2780.971,1661.016L2794.63,1661.116L2750.689,1749.611C2750.139,1750.719 2750.358,1751.462 2751.153,1751.467C2751.298,1751.469 2751.461,1751.446 2751.643,1751.395C2752.82,1751.069 2754.304,1749.741 2754.955,1748.429L2798.297,1661.142L2812.384,1661.244L2772.196,1749.897C2771.721,1750.944 2771.967,1751.619 2772.722,1751.624C2772.898,1751.626 2773.101,1751.591 2773.33,1751.516C2774.543,1751.119 2776,1749.748 2776.585,1748.456L2816.108,1661.271L2826.731,1661.348C2827.06,1661.35 2827.42,1661.287 2827.795,1661.19L2796.569,1750.356C2796.253,1751.26 2796.536,1751.796 2797.211,1751.801C2797.457,1751.803 2797.755,1751.735 2798.096,1751.586C2799.372,1751.031 2800.756,1749.583 2801.188,1748.351L2832.825,1658.007C2833.575,1657.274 2834.276,1656.463 2834.863,1655.602C2837.029,1652.426 2836.913,1649.813 2834.607,1649.796L2785.485,1649.44L3222.263,1185.39C3224.716,1182.787 3224.591,1178.654 3221.988,1176.204Z" style="fill:rgb(74,117,203);fill-rule:nonzero;"/>
            <path d="M3165.357,1214.624L3162.839,1223.904C3162.839,1223.904 3141.955,1231.265 3152.413,1252.47C3152.413,1252.47 3157.469,1261.042 3162.805,1256.924C3168.14,1252.806 3165.27,1253.644 3172.969,1247.996C3180.667,1242.35 3184.054,1233.811 3180.752,1227.277L3180.626,1219.668L3165.357,1214.624Z" style="fill:rgb(171,112,65);fill-rule:nonzero;"/>
            <path d="M3169.769,1231.526C3161.045,1228.226 3159.264,1219.708 3159.264,1219.708C3159.264,1219.708 3181.975,1130.332 3174.469,1126.497C3166.962,1122.662 3077.276,1109.478 3077.276,1109.478C3077.276,1109.478 3050.32,1103.791 3051.198,1079.38C3052.378,1046.603 3070.009,1032.267 3070.009,1032.267C3070.009,1032.267 3207.029,1083.425 3218.664,1101.339C3236.13,1128.228 3185.424,1230.673 3185.424,1230.673C3185.424,1230.673 3178.19,1234.712 3169.769,1231.526Z" style="fill:rgb(115,156,243);fill-rule:nonzero;"/>
            <path d="M3042.689,1008.935C3042.689,1008.935 3039.746,1042.552 3024.126,1055.002C3016.656,1043.118 3013.147,1035.986 3013.147,1035.986L3026.73,1008.594L3042.689,1008.935Z" style="fill:rgb(237,152,95);fill-rule:nonzero;"/>
            <path d="M3004.72,1039.083C3004.72,1039.083 3052.329,1026.031 3043.745,996.507C3035.161,966.983 3035.524,945.415 3004.764,952.5C2974.004,959.585 2971.4,972.56 2971.868,983.112C2972.336,993.663 2992.114,1041.717 3004.72,1039.083Z" style="fill:rgb(255,178,125);fill-rule:nonzero;"/>
            <path d="M3044.332,998.547C3044.332,998.547 3026.028,960.836 2983.35,974.626C2967.857,979.632 2967.15,975.388 2956.184,961.946C2956.184,961.946 2984.376,941.706 3008.156,936.485C3058.065,925.526 3046.585,990.838 3044.332,998.547Z" style="fill:rgb(43,71,139);fill-rule:nonzero;"/>
        </g>
    </g>
</svg>
